# Blender 4.0.0
# www.blender.org
o Refrigerator033_Body002
v 0.411176 -0.248242 0.950179
v -0.416576 -0.248242 0.948107
v -0.416575 0.410323 0.948182
v -0.414580 0.410323 -0.916897
v 0.413267 -0.248192 0.948111
v 0.381122 -0.248046 0.920367
v -0.386764 -0.248045 0.918055
v -0.384452 -0.248045 -0.887087
v 0.383435 -0.248045 -0.884775
v 0.412597 -0.249437 0.947373
v -0.413771 -0.249438 0.949529
v -0.415926 -0.249437 -0.914094
v 0.410443 -0.249437 -0.916250
v 0.384169 -0.249417 0.918400
v -0.384797 -0.249418 0.921101
v -0.387498 -0.249417 -0.885121
v 0.381468 -0.249417 -0.887821
v 0.411348 0.411567 0.949445
v -0.415792 0.411617 -0.915000
v 0.412513 0.411567 -0.915000
v 0.411943 -0.249430 0.948874
v -0.415271 -0.249430 0.948875
v -0.415272 -0.249429 -0.915594
v 0.411943 -0.249429 -0.915594
v 0.383174 -0.249430 0.920105
v -0.386502 -0.249430 0.920106
v -0.386503 -0.249429 -0.886825
v 0.383174 -0.249429 -0.886825
v -0.385835 0.380444 0.919387
v 0.411251 0.410323 0.950178
v -0.414613 0.412327 0.948183
v -0.414580 0.410388 0.950156
v -0.414548 0.412350 -0.914902
v -0.416553 0.410389 -0.914902
v 0.413245 0.410323 -0.914902
v 0.411251 0.410389 -0.916875
v 0.411006 -0.250248 0.946847
v -0.413245 -0.250248 0.947938
v -0.414508 -0.248193 0.950199
v -0.414504 -0.248242 -0.916899
v -0.414335 -0.250248 -0.913568
v -0.416596 -0.248192 -0.914832
v 0.413247 -0.248241 -0.914828
v 0.409915 -0.250248 -0.914659
v 0.411180 -0.248192 -0.916918
v 0.383437 -0.248035 0.918065
v -0.384460 -0.248036 0.920369
v -0.386766 -0.248035 -0.884785
v 0.381133 -0.248035 -0.887088
v 0.381243 0.380380 0.920148
v 0.381243 0.382342 0.918143
v -0.386545 0.380381 0.918176
v -0.384572 0.382320 0.918209
v -0.384573 0.380381 -0.886868
v -0.384572 0.382343 -0.884863
v 0.383216 0.380381 -0.884896
v 0.381243 0.382321 -0.884929
v 0.413224 0.410388 0.948183
v 0.411218 0.412350 0.948182
v 0.411284 0.412328 -0.914902
v 0.408874 -0.250141 0.948291
v -0.414689 -0.250141 0.945806
v -0.412203 -0.250141 -0.915012
v 0.411361 -0.250141 -0.912527
v 0.385583 -0.250225 0.919303
v 0.382820 -0.250193 0.922341
v -0.385701 -0.250225 0.922514
v -0.388739 -0.250193 0.919751
v -0.388911 -0.250225 -0.886026
v -0.386148 -0.250192 -0.889062
v 0.382375 -0.250225 -0.889234
v 0.385410 -0.250192 -0.886470
v 0.383238 0.380316 0.918175
v -0.384572 0.380314 0.920170
v -0.386568 0.380315 -0.884895
v 0.381243 0.380316 -0.886890
v 0.412528 0.410307 0.949418
v 0.412486 0.411632 0.948135
v -0.415842 0.411566 0.948280
v -0.414532 0.411632 0.949418
v -0.415815 0.410307 0.949460
v -0.414533 0.411590 -0.916180
v -0.415858 0.410307 -0.916138
v 0.412486 0.410308 -0.916180
v 0.411203 0.411633 -0.916138
v 0.410446 -0.249427 0.949543
v 0.412526 -0.248293 0.949474
v -0.415940 -0.249427 0.947376
v -0.415871 -0.248293 0.949457
v -0.413775 -0.249426 -0.916264
v -0.415854 -0.248292 -0.916194
v 0.412611 -0.249426 -0.914097
v 0.412542 -0.248292 -0.916177
v 0.381421 -0.249448 0.921150
v 0.382599 -0.248099 0.919575
v -0.387547 -0.249448 0.918353
v -0.385973 -0.248099 0.919529
v -0.384750 -0.249447 -0.887870
v -0.385927 -0.248098 -0.886295
v 0.384218 -0.249447 -0.885074
v 0.382643 -0.248097 -0.886250
v 0.381340 0.381610 0.919387
v 0.382479 0.380300 0.919453
v 0.382521 0.381583 0.918127
v -0.385808 0.381625 0.918127
v -0.384525 0.381583 0.919453
v -0.384525 0.381625 -0.886130
v -0.385808 0.380300 -0.886172
v -0.385835 0.381559 -0.884992
v 0.382455 0.381610 -0.884992
v 0.382521 0.380300 -0.886130
v 0.381196 0.381583 -0.886173
vn -0.0009 -0.0005 1.0000
vn 0.0009 -0.0020 1.0000
vn 0.0009 0.0006 1.0000
vn -0.0009 0.0001 1.0000
vn -1.0000 -0.0005 -0.0004
vn -1.0000 -0.0020 0.0004
vn -1.0000 0.0006 0.0004
vn -1.0000 0.0023 -0.0004
vn 0.0009 -0.0005 -1.0000
vn -0.0009 -0.0020 -1.0000
vn -0.0009 0.0006 -1.0000
vn 0.0008 0.0023 -1.0000
vn 1.0000 -0.0005 0.0004
vn 1.0000 -0.0020 -0.0004
vn 1.0000 0.0006 -0.0004
vn 1.0000 0.0001 0.0004
vn -0.0005 1.0000 -0.0004
vn -0.0018 1.0000 0.0004
vn 0.0004 1.0000 0.0004
vn 0.0018 1.0000 -0.0004
vn -0.0000 -1.0000 -0.0000
vn 0.0009 -1.0000 -0.0000
vn 0.0010 -1.0000 0.0002
vn -0.0009 -1.0000 0.0008
vn 0.0310 -0.9995 0.0003
vn -0.0005 -0.9999 0.0112
vn 0.0001 -0.9999 -0.0168
vn -0.0002 -0.9983 -0.0589
vn -0.0311 -0.9995 -0.0003
vn 0.0171 -0.9999 0.0001
vn 0.0590 -0.9983 -0.0001
vn 0.0005 -0.9999 -0.0112
vn -0.0001 -0.9999 0.0168
vn 0.0002 -0.9983 0.0588
vn -0.0171 -0.9999 -0.0000
vn -0.0590 -0.9983 -0.0000
vn -0.0010 -0.0010 -1.0000
vn 0.0011 -0.0027 -1.0000
vn 0.0010 -0.0009 -1.0000
vn -0.0009 -0.0027 -1.0000
vn 1.0000 -0.0010 -0.0000
vn 1.0000 -0.0027 0.0004
vn 1.0000 -0.0009 0.0004
vn 1.0000 -0.0003 -0.0000
vn 0.0010 -0.0009 1.0000
vn -0.0011 -0.0027 1.0000
vn -0.0010 -0.0009 1.0000
vn 0.0009 -0.0027 1.0000
vn -1.0000 -0.0010 0.0004
vn -1.0000 -0.0027 -0.0005
vn -1.0000 -0.0009 -0.0004
vn -1.0000 -0.0027 0.0004
vn 0.0004 -0.9565 0.2916
vn -0.2916 -0.9566 0.0002
vn -0.0004 -0.9565 -0.2916
vn 0.2915 -0.9566 -0.0002
vn 0.4734 -0.8261 0.3057
vn 0.7456 -0.6664 0.0002
vn 0.7393 -0.5689 0.3603
vn -0.3058 -0.8261 0.4733
vn -0.0004 -0.6666 0.7454
vn -0.3604 -0.5687 0.7394
vn -0.4734 -0.8260 -0.3059
vn -0.7456 -0.6664 -0.0002
vn -0.7393 -0.5688 -0.3605
vn 0.3060 -0.8261 -0.4733
vn 0.0004 -0.6665 -0.7455
vn 0.3603 -0.5689 -0.7393
vn -0.3349 -0.8874 -0.3169
vn -0.5118 -0.8591 -0.0001
vn 0.3169 -0.8874 -0.3349
vn 0.0003 -0.8591 -0.5119
vn 0.3347 -0.8874 0.3169
vn 0.5119 -0.8590 0.0001
vn -0.3168 -0.8875 0.3347
vn -0.0003 -0.8591 0.5118
vn -0.0007 0.7652 0.6438
vn 0.0015 0.6413 0.7673
vn -0.8736 -0.0000 0.4867
vn -0.8592 0.0024 0.5116
vn 0.0007 -0.4734 0.8809
vn 0.8751 -0.0000 0.4839
vn 0.8784 -0.0000 0.4779
vn -0.6440 0.7651 -0.0007
vn -0.7649 0.6442 0.0006
vn -0.4867 -0.0000 -0.8735
vn -0.5109 0.0001 -0.8597
vn -0.8810 -0.4731 0.0003
vn 0.0007 0.7694 -0.6388
vn -0.0007 0.6412 -0.7674
vn 0.8734 -0.0000 -0.4869
vn 0.8592 0.0024 -0.5116
vn -0.0007 -0.4733 -0.8809
vn 0.6439 0.7651 0.0003
vn 0.7691 0.6391 -0.0007
vn 0.8810 -0.4731 -0.0003
vn -0.0007 -0.8483 -0.5295
vn 0.5297 -0.8482 -0.0003
vn 0.0007 -0.8484 0.5293
vn -0.5296 -0.8483 0.0003
vn 0.0007 -0.6439 -0.7651
vn -0.0016 -0.7691 -0.6391
vn 0.8900 -0.4495 -0.0758
vn 0.7674 -0.6412 0.0007
vn 0.6438 -0.7652 -0.0003
vn -0.0007 -0.6390 0.7692
vn 0.0008 -0.7692 0.6391
vn -0.7632 -0.6462 -0.0003
vn -0.6388 -0.7694 0.0007
vn -0.4811 -0.0015 -0.8766
vn -0.4727 -0.0003 -0.8812
vn 0.8729 -0.0003 -0.4879
vn 0.7818 -0.0021 -0.6235
vn 0.6556 -0.0003 -0.7551
vn 0.4808 -0.0002 0.8768
vn 0.4727 -0.0003 0.8812
vn -0.8764 -0.0015 0.4815
vn -0.8811 -0.0003 0.4730
vn 0.5116 0.0024 0.8592
vn 0.3433 -0.5852 0.7346
vn 0.3623 -0.5733 0.7349
vn -0.7348 -0.5851 0.3431
vn -0.7351 -0.5732 0.3621
vn -0.3436 -0.5851 -0.7346
vn -0.3624 -0.5733 -0.7349
vn 0.7347 -0.5852 -0.3433
vn 0.7350 -0.5732 -0.3622
vn 0.8591 -0.0027 0.5118
vn 0.5178 -0.5228 0.6771
vn 0.6771 0.5229 0.5178
vn -0.5179 0.5229 0.6770
vn -0.5195 0.5140 -0.6826
vn -0.8748 0.0013 -0.4846
vn 0.5177 0.5229 -0.6771
vn 0.0005 -0.8814 0.4724
vn -0.4727 -0.8812 0.0002
vn -0.0005 -0.8814 -0.4724
vn 0.4727 -0.8812 -0.0002
vn -0.6039 -0.5124 -0.6105
vn -0.6070 -0.5066 -0.6123
vn -0.0010 -0.4784 -0.8781
vn -0.8835 -0.4684 -0.0009
vn 0.6103 -0.5124 -0.6041
vn 0.6122 -0.5067 -0.6071
vn 0.8783 -0.4781 -0.0004
vn 0.0022 -0.4688 -0.8833
vn 0.6040 -0.5121 0.6107
vn 0.6071 -0.5062 0.6126
vn 0.0010 -0.4782 0.8782
vn 0.8835 -0.4684 0.0009
vn -0.6104 -0.5121 0.6043
vn -0.6122 -0.5062 0.6074
vn -0.8783 -0.4781 0.0004
vn -0.0022 -0.4687 0.8833
vn -0.4359 -0.8952 -0.0923
vn -0.6824 -0.5144 -0.5194
vn 0.5181 -0.6770 -0.5228
vn -0.5195 -0.5140 0.6826
vn -0.0000 0.5088 0.8609
vn -0.4839 -0.0000 0.8751
vn -0.4779 -0.0000 0.8784
vn 0.4869 -0.0000 0.8735
vn -0.8783 -0.0000 -0.4782
vn 0.4840 -0.0000 -0.8751
vn 0.4779 -0.0000 -0.8784
vn 0.8609 0.5087 -0.0000
vn -0.0000 -0.8611 -0.5085
vn -0.8676 -0.0002 -0.4972
vn -0.8597 -0.0003 -0.5109
vn 0.8675 -0.0002 0.4974
vn -0.4972 -0.0002 0.8676
vn -0.5108 -0.0003 0.8597
vt 0.904537 0.791928
vt 0.900402 0.744954
vt 0.944411 0.742934
vt 0.948547 0.789917
vt 0.900325 0.857979
vt 0.904539 0.792120
vt 0.948548 0.790100
vt 0.944335 0.855962
vt 0.891237 0.824174
vt 0.896974 0.777328
vt 0.940847 0.780141
vt 0.935110 0.826994
vt 0.948894 0.739826
vt 0.948897 0.850588
vt 0.905045 0.848197
vt 0.905041 0.737425
vt 0.895747 0.861563
vt 0.895743 0.736642
vt 0.951115 0.736642
vt 0.951120 0.861563
vt 0.896725 0.738239
vt 0.948074 0.738235
vt 0.948074 0.859132
vt 0.896725 0.859137
vt 0.897962 0.752682
vt 0.953228 0.752609
vt 0.951382 0.754314
vt 0.899852 0.754325
vt 0.895430 0.736665
vt 0.895504 0.861480
vt 0.893799 0.859633
vt 0.893787 0.738555
vt 0.944532 0.829193
vt 0.889266 0.829266
vt 0.891112 0.827561
vt 0.942642 0.827550
vt 0.903217 0.859959
vt 0.903144 0.735143
vt 0.904848 0.736990
vt 0.904860 0.858069
vt 0.900501 0.807122
vt 0.905882 0.763694
vt 0.947740 0.766439
vt 0.942362 0.809882
vt 0.934813 0.752198
vt 0.934812 0.859387
vt 0.892970 0.857114
vt 0.892966 0.749912
vt 0.903200 0.854007
vt 0.899307 0.810458
vt 0.941294 0.808459
vt 0.945193 0.852021
vt 0.899300 0.810245
vt 0.903289 0.746505
vt 0.945278 0.744528
vt 0.941292 0.808277
vt 0.898105 0.752585
vt 0.895527 0.736808
vt 0.944389 0.829289
vt 0.903120 0.859816
vt 0.937825 0.863711
vt 0.937821 0.863821
vt 0.937733 0.863793
vt 0.937745 0.863689
vt 0.904455 0.792022
vt 0.904449 0.791914
vt 0.904536 0.792032
vt 0.951106 0.806331
vt 0.951106 0.806241
vt 0.951196 0.806234
vt 0.951188 0.806324
vt 0.903081 0.860021
vt 0.903181 0.860065
vt 0.903132 0.860110
vt 0.903041 0.860060
vt 0.905010 0.736936
vt 0.904943 0.737051
vt 0.905034 0.736787
vt 0.893637 0.738531
vt 0.893523 0.738464
vt 0.893584 0.738369
vt 0.893637 0.859687
vt 0.893704 0.859572
vt 0.893614 0.859837
vt 0.905010 0.858092
vt 0.905124 0.858159
vt 0.905063 0.858254
vt 0.895748 0.736559
vt 0.951124 0.736557
vt 0.948546 0.790012
vt 0.900325 0.745022
vt 0.948096 0.842667
vt 0.904243 0.840266
vt 0.904254 0.840171
vt 0.893891 0.861297
vt 0.895664 0.861569
vt 0.895660 0.736635
vt 0.896977 0.777226
vt 0.940852 0.780042
vt 0.945449 0.740145
vt 0.945368 0.740202
vt 0.951114 0.861645
vt 0.895748 0.861648
vt 0.948906 0.850646
vt 0.905052 0.848249
vt 0.951184 0.806426
vt 0.945448 0.853273
vt 0.945368 0.853202
vt 0.951098 0.806440
vt 0.951200 0.736645
vt 0.951202 0.861569
vt 0.948982 0.739854
vt 0.948981 0.850529
vt 0.951321 0.754408
vt 0.899946 0.754405
vt 0.893707 0.738648
vt 0.891173 0.827466
vt 0.942548 0.827470
vt 0.904940 0.857975
vt 0.903144 0.738232
vt 0.905034 0.739875
vt 0.904848 0.740079
vt 0.939173 0.787161
vt 0.944551 0.743719
vt 0.944637 0.743752
vt 0.947826 0.766473
vt 0.942445 0.809920
vt 0.892882 0.857138
vt 0.892877 0.749933
vt 0.941380 0.808433
vt 0.945278 0.851989
vt 0.944637 0.851318
vt 0.939161 0.787344
vt 0.939250 0.787311
vt 0.951249 0.736646
vt 0.951253 0.857546
vt 0.951202 0.857540
vt 0.942350 0.809976
vt 0.900490 0.807234
vt 0.944939 0.862447
vt 0.903092 0.860161
vt 0.903082 0.860110
vt 0.889131 0.829417
vt 0.930985 0.831691
vt 0.930988 0.831754
vt 0.934795 0.859595
vt 0.892950 0.857293
vt 0.892965 0.857214
vt 0.934810 0.859503
vt 0.941288 0.808360
vt 0.899297 0.810342
vt 0.951299 0.857625
vt 0.951290 0.857710
vt 0.951215 0.857668
vt 0.904968 0.848175
vt 0.937752 0.863606
vt 0.937837 0.863625
vt 0.904455 0.792113
vt 0.902993 0.859970
vt 0.903036 0.859921
vt 0.905127 0.736866
vt 0.893520 0.859757
vt 0.903004 0.860182
vt 0.892867 0.857246
vt 0.941378 0.808319
vt 0.951279 0.857805
vt 0.951202 0.857780
vt 0.899121 0.791695
vt 0.899119 0.791607
vt 0.899201 0.791646
vt 0.899120 0.791511
vt 0.899201 0.791531
vt 0.929685 0.798079
vt 0.929691 0.797979
vt 0.929774 0.797948
vt 0.929767 0.798061
vt 0.929697 0.797896
vt 0.951117 0.861695
vt 0.951200 0.861648
vt 0.903081 0.738096
vt 0.903181 0.738052
vt 0.903287 0.738135
vt 0.903037 0.738197
vt 0.895566 0.736602
vt 0.895611 0.736702
vt 0.895466 0.736558
vt 0.895566 0.861616
vt 0.895466 0.861661
vt 0.895360 0.861577
vt 0.895610 0.861515
vt 0.900395 0.807242
vt 0.900403 0.807105
vt 0.900394 0.807359
vt 0.900493 0.807335
vt 0.931078 0.831645
vt 0.931088 0.831717
vt 0.893602 0.738569
vt 0.893500 0.738513
vt 0.934903 0.859521
vt 0.934890 0.859637
vt 0.934910 0.859389
vt 0.899204 0.810337
vt 0.899201 0.810215
vt 0.899211 0.810469
vt 0.951334 0.736645
vt 0.951328 0.736562
vt 0.942349 0.810065
vt 0.942439 0.810031
vt 0.945283 0.740228
vt 0.945280 0.740145
vt 0.945368 0.740149
vt 0.945366 0.740234
vt 0.942976 0.864453
vt 0.943043 0.864530
vt 0.942956 0.864497
vt 0.945368 0.861134
vt 0.945280 0.861210
vt 0.945283 0.861125
vt 0.951334 0.857542
vt 0.951337 0.857625
vt 0.944492 0.742950
vt 0.948629 0.789937
vt 0.897999 0.752501
vt 0.953264 0.752502
vt 0.948109 0.842563
vt 0.904263 0.840087
vt 0.893900 0.861213
vt 0.895613 0.861563
vt 0.895611 0.736642
vt 0.896985 0.777136
vt 0.940858 0.779959
vt 0.940928 0.780124
vt 0.935191 0.826971
vt 0.923949 0.844932
vt 0.935094 0.827040
vt 0.891219 0.824225
vt 0.896419 0.759999
vt 0.940292 0.762819
vt 0.940276 0.762864
vt 0.944495 0.829373
vt 0.889230 0.829373
vt 0.904964 0.737401
vt 0.903037 0.735108
vt 0.905791 0.763643
vt 0.934912 0.752162
vt 0.903106 0.854057
vt 0.902676 0.848629
vt 0.897205 0.784638
vt 0.897304 0.784614
vt 0.902774 0.848580
vt 0.893928 0.740149
vt 0.958437 0.766337
vt 0.907089 0.766341
vt 0.907082 0.766258
vt 0.955644 0.840084
vt 0.904302 0.840087
vt 0.904299 0.840003
vt 0.893935 0.861130
vt 0.901108 0.861695
vt 0.901099 0.861751
s 1
f 39/1/1 1/2/2 30/3/3
f 30/3/3 32/4/4 39/1/1
f 42/5/5 2/6/6 3/7/7
f 3/7/7 34/8/8 42/5/5
f 45/9/9 40/10/10 4/11/11
f 4/11/11 36/12/12 45/9/9
f 5/13/13 43/14/14 35/15/15
f 35/15/15 58/16/16 5/13/13
f 33/17/17 31/18/18 59/19/19
f 59/19/19 60/20/20 33/17/17
f 51/21/21 53/22/22 55/23/23
f 55/23/23 57/24/24 51/21/21
f 37/25/25 38/26/26 67/27/27
f 67/27/27 66/28/28 37/25/25
f 38/29/26 41/30/29 69/31/30
f 69/31/30 68/32/31 38/29/26
f 41/33/29 44/34/32 71/35/33
f 71/35/33 70/36/34 41/33/29
f 44/37/32 37/38/25 65/39/35
f 65/39/35 72/40/36 44/37/32
f 6/41/37 47/42/38 74/43/39
f 74/43/39 50/44/40 6/41/37
f 7/45/41 48/46/42 75/47/43
f 75/47/43 52/48/44 7/45/41
f 8/49/45 49/50/46 76/51/47
f 76/51/47 54/52/48 8/49/45
f 9/53/49 46/54/50 73/55/51
f 73/55/51 56/56/52 9/53/49
f 38/26/26 37/25/25 61/57/53
f 41/30/29 38/29/26 62/58/54
f 44/34/32 41/33/29 63/59/55
f 37/38/25 44/37/32 64/60/56
f 21/61/57 10/62/58 5/63/13
f 5/63/13 87/64/59 21/61/57
f 22/65/60 11/66/61 39/1/1
f 39/1/1 89/67/62 22/65/60
f 23/68/63 12/69/64 42/70/5
f 42/70/5 91/71/65 23/68/63
f 24/72/66 13/73/67 45/74/9
f 45/74/9 93/75/68 24/72/66
f 25/76/69 14/77/70 65/39/35
f 65/39/35 66/78/28 25/76/69
f 26/79/71 15/80/72 67/81/27
f 67/81/27 68/32/31 26/79/71
f 27/82/73 16/83/74 69/31/30
f 69/31/30 70/84/34 27/82/73
f 28/85/75 17/86/76 71/87/33
f 71/87/33 72/40/36 28/85/75
f 59/19/19 31/18/18 80/88/77
f 80/88/77 18/89/78 59/19/19
f 3/7/7 2/6/6 89/67/79
f 89/67/79 81/90/80 3/7/7
f 1/2/2 39/1/1 11/66/61
f 11/66/61 86/91/81 1/2/2
f 5/92/13 58/93/16 77/94/82
f 77/95/82 87/64/83 5/63/13
f 31/18/18 33/17/17 19/96/84
f 19/96/84 79/97/85 31/18/18
f 4/11/11 40/10/10 91/98/86
f 91/98/86 83/99/87 4/11/11
f 2/100/6 42/70/5 12/69/64
f 12/69/64 88/101/88 2/100/6
f 33/17/17 60/20/20 85/102/89
f 85/102/89 82/103/90 33/17/17
f 35/15/15 43/14/14 93/104/91
f 93/104/91 84/105/92 35/15/15
f 40/106/10 45/107/9 13/108/67
f 13/108/67 90/109/93 40/106/10
f 60/20/20 59/19/19 78/110/94
f 78/110/94 20/111/95 60/20/20
f 43/14/14 5/13/13 10/112/58
f 10/112/58 92/113/96 43/14/14
f 66/28/28 67/27/27 15/114/72
f 15/114/72 94/115/97 66/28/28
f 68/32/31 69/31/30 16/83/74
f 16/83/74 96/116/98 68/32/31
f 70/36/34 71/35/33 17/117/76
f 17/117/76 98/118/99 70/36/34
f 72/40/36 65/39/35 14/77/70
f 14/77/70 100/119/100 72/40/36
f 37/120/25 66/121/28 65/122/35
f 38/29/26 68/32/31 67/81/27
f 41/30/29 70/84/34 69/31/30
f 44/37/32 72/40/36 71/87/33
f 50/123/40 74/124/39 106/125/101
f 106/126/101 102/127/102 50/44/40
f 52/48/103 75/47/43 109/128/104
f 109/128/104 105/129/105 52/48/103
f 54/52/48 76/51/47 112/130/106
f 112/130/106 107/131/107 54/52/48
f 56/132/52 73/133/51 104/134/108
f 104/135/108 110/136/109 56/137/52
f 6/41/37 50/44/40 103/138/110
f 103/138/110 95/139/111 6/41/37
f 7/140/112 52/141/103 29/142/113
f 29/143/113 97/144/114 7/145/112
f 8/146/45 54/147/48 108/148/115
f 108/148/115 99/149/116 8/146/45
f 9/53/49 56/56/52 111/150/117
f 111/150/117 101/151/118 9/53/49
f 30/152/3 77/153/119 18/154/78
f 79/97/85 80/88/77 31/18/18
f 33/17/17 82/103/90 19/96/84
f 35/15/15 84/105/92 20/155/95
f 21/61/120 87/64/121 1/156/2
f 1/156/2 86/157/81 21/61/120
f 22/65/122 89/67/123 2/6/6
f 2/6/6 88/158/88 22/65/122
f 23/68/124 91/71/125 40/106/10
f 40/106/10 90/109/93 23/68/124
f 24/72/126 93/75/127 43/159/14
f 43/159/14 92/160/96 24/72/126
f 66/78/28 94/161/97 25/76/69
f 68/32/31 96/116/98 26/79/71
f 70/84/34 98/162/99 27/82/73
f 72/40/36 100/119/100 28/85/75
f 102/127/102 103/138/110 50/44/40
f 52/141/103 105/163/105 29/142/113
f 109/128/104 108/148/128 54/147/129
f 54/147/129 107/164/107 109/128/104
f 110/165/109 111/150/117 56/56/52
f 58/166/130 78/167/94 18/154/78
f 18/154/78 77/153/119 58/166/130
f 18/89/78 78/110/94 59/19/19
f 3/168/7 81/169/80 79/170/85
f 32/171/131 80/172/77 79/170/85
f 79/170/85 81/169/80 32/171/131
f 4/173/132 83/174/133 19/175/84
f 19/175/84 82/176/90 4/173/132
f 19/175/84 83/174/133 34/177/8
f 36/178/134 85/102/89 20/111/95
f 20/111/95 84/179/92 36/178/134
f 20/111/95 85/102/89 60/20/20
f 37/120/25 21/180/57 86/181/135
f 86/181/135 61/182/53 37/120/25
f 10/183/58 21/180/57 37/120/25
f 38/29/26 22/184/60 88/185/136
f 88/185/136 62/58/54 38/29/26
f 11/186/61 22/184/60 38/29/26
f 41/30/29 23/187/63 90/188/137
f 90/188/137 63/189/55 41/30/29
f 12/190/64 23/187/63 41/30/29
f 44/37/32 24/72/66 92/160/138
f 92/160/138 64/60/56 44/37/32
f 13/73/67 24/72/66 44/37/32
f 95/139/139 25/191/140 94/192/141
f 94/192/141 6/41/37 95/139/139
f 14/193/142 25/191/140 95/139/139
f 95/139/139 46/194/50 14/193/142
f 97/144/143 26/195/144 96/196/145
f 96/196/145 7/145/41 97/144/143
f 15/80/146 26/79/144 97/197/143
f 97/197/143 47/198/38 15/80/146
f 99/149/147 27/199/148 98/200/149
f 98/200/149 8/146/45 99/149/147
f 16/201/150 27/199/148 99/149/147
f 99/149/147 48/46/42 16/201/150
f 101/151/151 28/202/152 100/203/153
f 100/203/153 9/53/49 101/151/151
f 17/204/154 28/202/152 101/151/151
f 101/151/151 49/50/46 17/204/154
f 51/205/155 104/135/108 102/206/102
f 73/207/156 103/138/110 102/127/102
f 102/127/102 104/208/108 73/207/156
f 53/209/157 106/210/101 29/211/113
f 29/211/113 105/212/105 53/209/157
f 29/213/113 106/214/101 74/215/39
f 109/216/104 107/217/107 55/218/23
f 75/47/43 108/148/128 109/128/104
f 57/219/24 112/220/106 110/136/109
f 76/51/158 111/150/117 110/165/109
f 110/165/109 112/130/106 76/51/158
f 18/221/78 80/222/77 32/4/159
f 32/4/159 30/3/3 18/221/78
f 81/90/160 89/67/161 39/1/1
f 39/1/1 32/4/4 81/90/160
f 86/223/135 11/224/61 38/26/26
f 38/26/26 61/57/53 86/223/135
f 87/225/162 77/94/119 30/226/3
f 30/227/3 1/156/2 87/64/162
f 79/97/85 19/96/84 34/228/8
f 34/228/8 3/229/7 79/97/85
f 83/99/133 91/98/163 42/230/5
f 42/230/5 34/231/8 83/99/133
f 88/185/136 12/190/64 41/30/29
f 41/30/29 62/58/54 88/185/136
f 82/232/90 85/233/89 36/12/12
f 36/234/12 4/173/11 82/176/90
f 84/235/164 93/236/165 45/9/9
f 45/237/9 36/238/12 84/239/164
f 90/240/137 13/241/67 44/34/32
f 44/34/32 63/59/55 90/240/137
f 20/155/95 78/242/94 58/16/166
f 58/16/166 35/15/15 20/155/95
f 92/160/138 10/243/58 37/38/25
f 37/38/25 64/60/56 92/160/138
f 94/192/141 15/244/146 47/42/38
f 47/42/38 6/41/37 94/192/141
f 96/245/145 16/201/150 48/46/42
f 48/46/42 7/45/41 96/245/145
f 98/246/149 17/204/154 49/50/46
f 49/50/46 8/49/45 98/246/149
f 100/247/153 14/248/142 46/249/50
f 46/249/50 9/250/49 100/247/153
f 102/251/102 106/210/101 53/209/167
f 53/252/167 51/253/155 102/254/102
f 105/212/105 109/216/104 55/218/23
f 55/218/23 53/209/22 105/212/105
f 107/255/107 112/256/106 57/257/24
f 57/258/24 55/218/23 107/217/107
f 110/136/109 104/135/108 51/205/155
f 51/205/155 57/219/24 110/136/109
f 95/139/168 103/138/169 73/207/51
f 73/207/51 46/194/50 95/139/168
f 97/259/114 29/213/113 74/215/39
f 74/215/39 47/260/38 97/259/114
f 99/149/170 108/148/128 75/47/43
f 75/47/43 48/46/42 99/149/170
f 101/151/171 111/150/172 76/51/47
f 76/51/47 49/50/46 101/151/171
