# Blender 4.0.0
# www.blender.org
o Refrigerator033_Body001_Clear
v 0.019825 0.247742 0.727956
v 0.350606 0.247742 0.727956
v 0.350606 -0.249184 0.727956
v 0.019825 -0.249185 0.727956
v 0.019301 -0.249185 0.728272
v 0.019301 -0.249185 0.734374
v 0.019301 0.247742 0.734374
v 0.019301 0.247742 0.728272
v 0.019825 -0.249578 0.728035
v 0.019498 -0.249513 0.728075
v 0.019432 -0.249185 0.728035
v 0.019432 0.247742 0.728035
v 0.019498 0.247841 0.728075
v 0.019825 0.247861 0.728035
v 0.019825 0.247742 0.734690
v 0.019825 0.247861 0.734611
v 0.019498 0.247841 0.734571
v 0.019432 0.247742 0.734611
v 0.019825 -0.249185 0.734690
v 0.019432 -0.249185 0.734611
v 0.019498 -0.249513 0.734571
v 0.019825 -0.249578 0.734611
v 0.019432 0.247861 0.728272
v 0.019432 -0.249578 0.728272
v 0.019432 -0.249578 0.734374
v 0.019432 0.247861 0.734374
v 0.019825 0.247900 0.728272
v 0.019825 0.247900 0.734374
v 0.019825 -0.249709 0.734374
v 0.019825 -0.249709 0.728272
v 0.350606 -0.249578 0.728035
v 0.350606 0.247900 0.728272
v 0.350606 0.247861 0.728036
v 0.350606 -0.249709 0.734374
v 0.350606 -0.249578 0.734611
v 0.350606 -0.249184 0.734690
v 0.350606 0.247742 0.734690
v 0.350606 -0.249709 0.728272
v 0.351130 0.247742 0.734374
v 0.351130 -0.249184 0.734374
v 0.351130 -0.249184 0.728272
v 0.351130 0.247742 0.728272
v 0.350606 0.247900 0.734374
v 0.350999 -0.249184 0.728035
v 0.350933 -0.249512 0.728075
v 0.350933 0.247841 0.728075
v 0.350999 0.247742 0.728036
v 0.350999 0.247742 0.734612
v 0.350933 0.247841 0.734571
v 0.350606 0.247861 0.734612
v 0.350933 -0.249512 0.734571
v 0.350999 -0.249184 0.734611
v 0.350999 0.247861 0.728272
v 0.350999 -0.249578 0.728272
v 0.350999 -0.249578 0.734374
v 0.350999 0.247861 0.734374
v -0.353719 0.247742 0.727956
v -0.022939 0.247742 0.727956
v -0.022938 -0.249185 0.727956
v -0.353719 -0.249185 0.727956
v -0.354243 -0.249185 0.728272
v -0.354243 -0.249185 0.734374
v -0.354243 0.247742 0.734374
v -0.354243 0.247742 0.728272
v -0.353719 -0.249578 0.728035
v -0.354046 -0.249513 0.728075
v -0.354112 -0.249185 0.728035
v -0.354112 0.247742 0.728035
v -0.354046 0.247841 0.728075
v -0.353719 0.247860 0.728035
v -0.353719 0.247742 0.734690
v -0.353719 0.247860 0.734611
v -0.354046 0.247841 0.734571
v -0.354112 0.247742 0.734611
v -0.353719 -0.249185 0.734690
v -0.354112 -0.249185 0.734611
v -0.354046 -0.249513 0.734571
v -0.353719 -0.249578 0.734611
v -0.354112 0.247860 0.728272
v -0.354112 -0.249578 0.728272
v -0.354112 -0.249578 0.734374
v -0.354112 0.247860 0.734374
v -0.353719 0.247900 0.728272
v -0.353719 0.247900 0.734374
v -0.353719 -0.249709 0.734374
v -0.353719 -0.249709 0.728272
v -0.022938 -0.249578 0.728035
v -0.022939 0.247900 0.728272
v -0.022939 0.247861 0.728036
v -0.022938 -0.249709 0.734374
v -0.022938 -0.249578 0.734611
v -0.022938 -0.249185 0.734690
v -0.022939 0.247742 0.734690
v -0.022938 -0.249709 0.728272
v -0.022414 0.247742 0.734374
v -0.022414 -0.249185 0.734374
v -0.022414 -0.249185 0.728272
v -0.022414 0.247742 0.728272
v -0.022939 0.247900 0.734374
v -0.022545 -0.249185 0.728035
v -0.022611 -0.249513 0.728075
v -0.022612 0.247841 0.728075
v -0.022546 0.247742 0.728036
v -0.022546 0.247742 0.734612
v -0.022612 0.247841 0.734571
v -0.022939 0.247861 0.734612
v -0.022611 -0.249513 0.734571
v -0.022545 -0.249185 0.734611
v -0.022546 0.247861 0.728272
v -0.022545 -0.249578 0.728272
v -0.022545 -0.249578 0.734374
v -0.022546 0.247861 0.734374
v 0.021534 0.246261 0.613571
v 0.344287 0.246261 0.613571
v 0.344287 -0.251636 0.613571
v 0.021535 -0.251635 0.613571
v 0.021010 -0.251635 0.613887
v 0.021010 -0.251635 0.619989
v 0.021010 0.246261 0.619989
v 0.021010 0.246261 0.613887
v 0.021535 -0.252028 0.613650
v 0.021207 -0.251963 0.613690
v 0.021141 -0.251635 0.613650
v 0.021141 0.246261 0.613650
v 0.021207 0.246588 0.613690
v 0.021534 0.246654 0.613650
v 0.021534 0.246261 0.620305
v 0.021534 0.246654 0.620226
v 0.021207 0.246588 0.620186
v 0.021141 0.246261 0.620226
v 0.021535 -0.251635 0.620305
v 0.021141 -0.251635 0.620226
v 0.021207 -0.251963 0.620186
v 0.021535 -0.252028 0.620226
v 0.021141 0.246654 0.613887
v 0.021141 -0.252028 0.613887
v 0.021141 -0.252028 0.619989
v 0.021141 0.246654 0.619989
v 0.021534 0.246786 0.613887
v 0.021534 0.246786 0.619989
v 0.021535 -0.252159 0.619989
v 0.021535 -0.252159 0.613887
v 0.344287 -0.252028 0.613650
v 0.344287 0.246786 0.613887
v 0.344287 0.246654 0.613650
v 0.344287 -0.252160 0.619989
v 0.344287 -0.252028 0.620226
v 0.344287 -0.251636 0.620305
v 0.344287 0.246261 0.620305
v 0.344287 -0.252160 0.613887
v 0.344811 0.246261 0.619989
v 0.344811 -0.251636 0.619989
v 0.344811 -0.251636 0.613887
v 0.344811 0.246261 0.613887
v 0.344287 0.246786 0.619989
v 0.344680 -0.251636 0.613650
v 0.344614 -0.251964 0.613690
v 0.344614 0.246588 0.613690
v 0.344680 0.246261 0.613650
v 0.344680 0.246261 0.620226
v 0.344614 0.246588 0.620186
v 0.344287 0.246654 0.620226
v 0.344614 -0.251964 0.620186
v 0.344680 -0.251636 0.620226
v 0.344680 0.246654 0.613887
v 0.344680 -0.252028 0.613887
v 0.344680 -0.252028 0.619989
v 0.344680 0.246654 0.619989
v 0.021534 0.246261 0.401054
v 0.344287 0.246261 0.401054
v 0.344287 -0.251636 0.401054
v 0.021534 -0.251636 0.401054
v 0.021010 -0.251636 0.401370
v 0.021010 -0.251636 0.407472
v 0.021010 0.246261 0.407472
v 0.021010 0.246261 0.401370
v 0.021534 -0.252028 0.401133
v 0.021208 -0.251963 0.401173
v 0.021141 -0.251636 0.401133
v 0.021141 0.246261 0.401133
v 0.021207 0.246588 0.401173
v 0.021534 0.246654 0.401133
v 0.021534 0.246261 0.407788
v 0.021534 0.246654 0.407709
v 0.021207 0.246588 0.407669
v 0.021141 0.246261 0.407709
v 0.021534 -0.251636 0.407788
v 0.021141 -0.251636 0.407709
v 0.021208 -0.251963 0.407669
v 0.021534 -0.252028 0.407709
v 0.021141 0.246654 0.401370
v 0.021141 -0.252028 0.401370
v 0.021141 -0.252028 0.407472
v 0.021141 0.246654 0.407472
v 0.021534 0.246785 0.401370
v 0.021534 0.246785 0.407472
v 0.021534 -0.252159 0.407472
v 0.021534 -0.252159 0.401370
v 0.344287 -0.252028 0.401133
v 0.344287 0.246786 0.401370
v 0.344287 0.246654 0.401133
v 0.344287 -0.252160 0.407472
v 0.344287 -0.252028 0.407709
v 0.344287 -0.251636 0.407788
v 0.344287 0.246261 0.407788
v 0.344287 -0.252160 0.401370
v 0.344811 0.246261 0.407472
v 0.344811 -0.251636 0.407472
v 0.344811 -0.251636 0.401370
v 0.344811 0.246261 0.401370
v 0.344287 0.246786 0.407472
v 0.344680 -0.251636 0.401133
v 0.344614 -0.251964 0.401173
v 0.344614 0.246588 0.401173
v 0.344680 0.246261 0.401133
v 0.344680 0.246261 0.407709
v 0.344614 0.246588 0.407669
v 0.344287 0.246654 0.407709
v 0.344614 -0.251964 0.407669
v 0.344680 -0.251636 0.407709
v 0.344680 0.246654 0.401370
v 0.344680 -0.252028 0.401370
v 0.344680 -0.252028 0.407472
v 0.344680 0.246654 0.407472
v -0.029257 -0.251636 0.613571
v -0.352010 -0.251636 0.613571
v -0.352010 0.246261 0.613571
v -0.029258 0.246261 0.613571
v -0.352534 0.246261 0.619989
v -0.352534 0.246261 0.613887
v -0.352534 -0.251636 0.613887
v -0.352534 -0.251636 0.619989
v -0.352337 -0.251964 0.613690
v -0.352403 -0.251636 0.613650
v -0.352010 -0.252029 0.613650
v -0.352337 0.246588 0.613690
v -0.352010 0.246654 0.613650
v -0.352403 0.246261 0.613650
v -0.352337 0.246588 0.620186
v -0.352403 0.246261 0.620226
v -0.352010 0.246261 0.620305
v -0.352010 0.246654 0.620226
v -0.352337 -0.251964 0.620186
v -0.352010 -0.252029 0.620226
v -0.352010 -0.251636 0.620305
v -0.352403 -0.251636 0.620226
v -0.352403 0.246654 0.613887
v -0.352403 -0.252029 0.613887
v -0.352403 -0.252029 0.619989
v -0.352403 0.246654 0.619989
v -0.352010 0.246786 0.613887
v -0.352010 0.246786 0.619989
v -0.352010 -0.252160 0.619989
v -0.352010 -0.252160 0.613887
v -0.029257 -0.252028 0.613650
v -0.029258 0.246785 0.613887
v -0.029258 0.246654 0.613650
v -0.029257 -0.252160 0.619989
v -0.029257 -0.252028 0.620226
v -0.029258 0.246261 0.620305
v -0.029257 -0.251636 0.620305
v -0.029257 -0.252160 0.613887
v -0.028733 -0.251636 0.613887
v -0.028733 0.246261 0.613887
v -0.028733 0.246261 0.619989
v -0.028733 -0.251636 0.619989
v -0.029258 0.246785 0.619989
v -0.028930 -0.251965 0.613690
v -0.028864 -0.251636 0.613650
v -0.028930 0.246588 0.613690
v -0.028864 0.246261 0.613650
v -0.028930 0.246588 0.620186
v -0.029258 0.246654 0.620226
v -0.028864 0.246261 0.620226
v -0.028930 -0.251965 0.620186
v -0.028864 -0.251636 0.620226
v -0.028864 0.246654 0.613887
v -0.028864 -0.252028 0.613887
v -0.028864 -0.252028 0.619989
v -0.028864 0.246654 0.619989
v -0.029257 -0.251636 0.401054
v -0.352010 -0.251637 0.401054
v -0.352010 0.246261 0.401054
v -0.029258 0.246261 0.401054
v -0.352534 0.246261 0.407472
v -0.352534 0.246261 0.401370
v -0.352534 -0.251637 0.401370
v -0.352534 -0.251637 0.407472
v -0.352337 -0.251964 0.401173
v -0.352403 -0.251637 0.401133
v -0.352010 -0.252029 0.401133
v -0.352337 0.246588 0.401173
v -0.352010 0.246654 0.401133
v -0.352403 0.246261 0.401133
v -0.352337 0.246588 0.407669
v -0.352403 0.246261 0.407709
v -0.352010 0.246261 0.407788
v -0.352010 0.246654 0.407709
v -0.352337 -0.251964 0.407669
v -0.352010 -0.252029 0.407709
v -0.352010 -0.251637 0.407788
v -0.352403 -0.251637 0.407709
v -0.352403 0.246654 0.401370
v -0.352403 -0.252029 0.401370
v -0.352403 -0.252029 0.407472
v -0.352403 0.246654 0.407472
v -0.352010 0.246785 0.401370
v -0.352010 0.246785 0.407472
v -0.352010 -0.252160 0.407472
v -0.352010 -0.252160 0.401370
v -0.029257 -0.252028 0.401133
v -0.029258 0.246785 0.401370
v -0.029258 0.246654 0.401133
v -0.029257 -0.252160 0.407472
v -0.029257 -0.252028 0.407709
v -0.029258 0.246261 0.407788
v -0.029257 -0.251636 0.407788
v -0.029257 -0.252160 0.401370
v -0.028733 -0.251636 0.401370
v -0.028733 0.246261 0.401370
v -0.028733 0.246261 0.407472
v -0.028733 -0.251636 0.407472
v -0.029258 0.246785 0.407472
v -0.028930 -0.251965 0.401173
v -0.028864 -0.251636 0.401133
v -0.028931 0.246588 0.401173
v -0.028864 0.246261 0.401133
v -0.028931 0.246588 0.407669
v -0.029258 0.246654 0.407709
v -0.028864 0.246261 0.407709
v -0.028930 -0.251965 0.407669
v -0.028864 -0.251636 0.407709
v -0.028864 0.246654 0.401370
v -0.028864 -0.252028 0.401370
v -0.028864 -0.252028 0.407472
v -0.028864 0.246654 0.407472
vn -0.0000 -0.0000 -1.0000
vn -1.0000 -0.0000 -0.0000
vn -0.1944 -0.1574 -0.9682
vn -0.1572 -0.1944 -0.9683
vn -0.1345 0.5492 -0.8248
vn -0.1739 0.4683 -0.8663
vn -0.1739 0.4684 0.8663
vn -0.1345 0.5492 0.8248
vn -0.1572 -0.1944 0.9682
vn -0.1944 -0.1574 0.9682
vn -0.6891 0.6163 -0.3812
vn -0.6426 0.7103 -0.2874
vn -0.8738 -0.2913 -0.3894
vn -0.8519 -0.2290 -0.4709
vn -0.8521 -0.2290 0.4706
vn -0.8740 -0.2913 0.3889
vn -0.6427 0.7104 0.2869
vn -0.6893 0.6163 0.3808
vn -0.0991 0.9862 -0.1329
vn -0.0799 0.9832 -0.1639
vn -0.0799 0.9833 0.1637
vn -0.0991 0.9862 0.1327
vn -0.2916 -0.8751 0.3862
vn -0.2272 -0.8524 0.4710
vn -0.2272 -0.8522 -0.4713
vn -0.2916 -0.8749 -0.3866
vn -0.1968 -0.0000 -0.9804
vn -0.0000 -0.1968 -0.9804
vn -0.1968 -0.0000 0.9804
vn -0.1968 -0.0000 0.9805
vn -0.8752 -0.0000 -0.4838
vn -0.9487 -0.3162 -0.0000
vn -0.8754 -0.0000 0.4834
vn -0.6709 0.7416 -0.0000
vn -0.1000 0.9950 -0.0000
vn -0.0000 0.9864 -0.1644
vn -0.0000 0.9863 -0.1651
vn -0.0000 -0.8753 0.4835
vn -0.3162 -0.9487 -0.0000
vn -0.0000 -0.0000 1.0000
vn -0.0000 -1.0000 -0.0000
vn -0.0000 0.5542 -0.8324
vn -0.0000 0.5588 -0.8293
vn -0.0000 -0.1968 0.9804
vn 1.0000 -0.0000 -0.0000
vn -0.0000 1.0000 -0.0000
vn 0.1571 -0.1944 -0.9683
vn 0.1943 -0.1574 -0.9682
vn 0.1765 0.4627 -0.8688
vn 0.1321 0.5539 -0.8220
vn 0.1369 0.5444 0.8276
vn 0.1713 0.4738 0.8638
vn 0.1943 -0.1574 0.9682
vn 0.1572 -0.1944 0.9682
vn 0.6426 0.7104 -0.2869
vn 0.6901 0.6140 -0.3831
vn 0.8519 -0.2290 -0.4710
vn 0.8739 -0.2913 -0.3892
vn 0.8741 -0.2913 0.3888
vn 0.8521 -0.2290 0.4706
vn 0.6885 0.6185 0.3788
vn 0.6428 0.7104 0.2867
vn 0.0795 0.9831 -0.1647
vn 0.0992 0.9861 -0.1331
vn 0.0992 0.9861 0.1329
vn 0.0803 0.9833 0.1632
vn 0.2272 -0.8523 0.4711
vn 0.2917 -0.8750 0.3863
vn 0.2916 -0.8748 -0.3868
vn 0.2271 -0.8522 -0.4714
vn 0.1991 -0.0000 -0.9800
vn 0.1968 -0.0000 -0.9804
vn -0.0000 0.5496 0.8355
vn -0.0000 0.5542 0.8324
vn 0.1968 -0.0000 0.9805
vn 0.1945 -0.0000 0.9809
vn 0.8752 -0.0000 -0.4838
vn 0.8743 -0.0000 -0.4854
vn 0.9487 -0.3162 -0.0000
vn 0.8762 -0.0000 0.4820
vn 0.8754 -0.0000 0.4834
vn 0.6709 0.7416 -0.0000
vn 0.6707 0.7418 -0.0000
vn 0.1001 0.9950 -0.0000
vn 0.3163 -0.9487 -0.0000
vn 0.3162 -0.9487 -0.0000
vn -0.0000 0.9864 0.1643
vn -0.0000 0.9865 0.1636
vn -0.0000 -0.8751 -0.4839
vn -0.1572 -0.1944 -0.9682
vn -0.1344 0.5490 -0.8250
vn -0.1740 0.4683 -0.8663
vn -0.1740 0.4683 0.8663
vn -0.1344 0.5490 0.8249
vn -0.6893 0.6161 -0.3812
vn -0.6427 0.7102 -0.2874
vn -0.8739 -0.2913 -0.3893
vn -0.8519 -0.2290 -0.4711
vn -0.8521 -0.2289 0.4707
vn -0.8740 -0.2915 0.3888
vn -0.6428 0.7102 0.2871
vn -0.6893 0.6163 0.3809
vn -0.0799 0.9833 -0.1637
vn -0.0799 0.9833 0.1636
vn -0.0991 0.9862 0.1329
vn -0.2918 -0.8751 0.3861
vn -0.2270 -0.8524 0.4710
vn -0.2270 -0.8523 -0.4713
vn -0.2917 -0.8749 -0.3865
vn -0.1969 -0.0000 -0.9804
vn -0.0000 -0.1969 -0.9804
vn -0.1969 -0.0000 0.9804
vn -0.8751 -0.0000 -0.4840
vn -0.9486 -0.3164 -0.0000
vn -0.8753 -0.0000 0.4836
vn -0.6707 0.7417 -0.0000
vn -0.0000 -0.8753 0.4837
vn -0.3163 -0.9487 -0.0000
vn -0.3163 -0.9486 -0.0000
vn -0.0000 0.5541 -0.8325
vn -0.0000 -0.1969 0.9804
vn 0.1944 -0.1573 -0.9682
vn 0.1765 0.4625 -0.8689
vn 0.1944 -0.1573 0.9682
vn 0.6425 0.7104 -0.2872
vn 0.6901 0.6139 -0.3831
vn 0.8519 -0.2289 -0.4710
vn 0.8740 -0.2914 0.3888
vn 0.8521 -0.2289 0.4707
vn 0.6886 0.6184 0.3788
vn 0.6426 0.7105 0.2868
vn 0.0992 0.9862 -0.1329
vn 0.0992 0.9862 0.1328
vn 0.0803 0.9833 0.1633
vn 0.2272 -0.8525 0.4708
vn 0.2917 -0.8751 0.3862
vn 0.2916 -0.8749 -0.3866
vn 0.2272 -0.8523 -0.4712
vn -0.0000 0.5541 0.8325
vn 0.1968 -0.0000 0.9804
vn 0.8751 -0.0000 -0.4839
vn 0.8753 -0.0000 0.4835
vn 0.6708 0.7416 -0.0000
vn -0.0000 -0.8750 -0.4840
vn -0.1569 -0.1947 -0.9682
vn -0.1947 -0.1571 -0.9682
vn -0.1946 0.1575 -0.9681
vn -0.1575 0.1946 -0.9681
vn -0.1578 0.1946 0.9681
vn -0.1946 0.1579 0.9681
vn -0.1946 -0.1574 0.9682
vn -0.1573 -0.1947 0.9682
vn -0.8735 0.2911 -0.3901
vn -0.8519 0.2295 -0.4707
vn -0.8521 -0.2289 -0.4708
vn -0.8740 -0.2913 -0.3889
vn -0.8739 -0.2913 0.3893
vn -0.8519 -0.2290 0.4709
vn -0.8518 0.2297 0.4709
vn -0.8733 0.2911 0.3906
vn -0.2294 0.8503 -0.4736
vn -0.2931 0.8727 -0.3904
vn -0.2931 0.8726 0.3908
vn -0.2296 0.8502 0.4737
vn -0.2271 -0.8523 0.4712
vn -0.2916 -0.8749 0.3866
vn -0.2916 -0.8751 -0.3863
vn -0.2269 -0.8524 -0.4710
vn -0.1971 -0.0000 -0.9804
vn -0.0000 -0.1976 -0.9803
vn -0.0000 -0.1971 -0.9804
vn -0.1971 -0.0000 0.9804
vn -0.8753 -0.0000 -0.4836
vn -0.8752 -0.0000 0.4838
vn -0.9487 0.3162 -0.0000
vn -0.3184 0.9480 -0.0000
vn -0.0000 0.8752 -0.4838
vn -0.0000 0.8737 -0.4865
vn -0.0000 -0.8736 0.4866
vn -0.0000 -0.8751 0.4839
vn -0.0000 0.1971 -0.9804
vn -0.0000 -0.1976 0.9803
vn -0.0000 -0.1971 0.9804
vn 0.1947 -0.1570 -0.9682
vn 0.1564 -0.1952 -0.9682
vn 0.1575 0.1947 -0.9681
vn 0.1946 0.1575 -0.9682
vn 0.1946 0.1578 0.9681
vn 0.1578 0.1947 0.9681
vn 0.1568 -0.1952 0.9682
vn 0.1946 -0.1574 0.9682
vn 0.8519 0.2296 -0.4706
vn 0.8736 0.2911 -0.3900
vn 0.8743 -0.2921 -0.3875
vn 0.8521 -0.2288 -0.4707
vn 0.8519 -0.2291 0.4708
vn 0.8742 -0.2921 0.3880
vn 0.8734 0.2911 0.3904
vn 0.8518 0.2296 0.4708
vn 0.2913 0.8736 -0.3899
vn 0.2293 0.8518 -0.4709
vn 0.2295 0.8517 0.4711
vn 0.2912 0.8735 0.3902
vn 0.2940 -0.8756 0.3833
vn 0.2246 -0.8513 0.4741
vn 0.2245 -0.8514 -0.4740
vn 0.2940 -0.8757 -0.3829
vn 0.1971 -0.0000 -0.9804
vn -0.0000 0.1971 0.9804
vn 0.1971 -0.0000 0.9804
vn 0.8753 -0.0000 -0.4835
vn 0.9484 -0.3169 -0.0000
vn 0.9485 -0.3168 -0.0000
vn 0.8752 -0.0000 0.4837
vn 0.9487 0.3162 -0.0000
vn 0.9487 0.3161 -0.0000
vn 0.3163 0.9487 -0.0000
vn 0.3182 -0.9480 -0.0000
vn 0.3183 -0.9480 -0.0000
vn -0.0000 0.8751 0.4840
vn -0.0000 0.8736 0.4867
vn -0.0000 -0.8737 -0.4864
vn -0.0000 -0.8752 -0.4837
vn -0.1570 -0.1952 -0.9681
vn -0.1947 -0.1575 -0.9681
vn -0.1947 0.1575 -0.9681
vn -0.1576 0.1947 -0.9681
vn -0.1578 0.1944 0.9681
vn -0.1943 0.1578 0.9682
vn -0.1944 -0.1578 0.9681
vn -0.1573 -0.1949 0.9681
vn -0.8736 0.2911 -0.3901
vn -0.8519 0.2295 -0.4708
vn -0.8519 -0.2296 -0.4707
vn -0.8738 -0.2920 -0.3889
vn -0.8737 -0.2920 0.3890
vn -0.8520 -0.2297 0.4705
vn -0.8520 0.2297 0.4705
vn -0.8736 0.2912 0.3900
vn -0.2294 0.8519 -0.4709
vn -0.2913 0.8735 -0.3900
vn -0.2913 0.8735 0.3900
vn -0.2296 0.8519 0.4706
vn -0.2271 -0.8525 0.4708
vn -0.2917 -0.8750 0.3863
vn -0.2917 -0.8750 -0.3863
vn -0.2270 -0.8524 -0.4710
vn -0.1972 -0.0000 -0.9804
vn -0.9484 -0.3170 -0.0000
vn -0.8754 -0.0000 0.4835
vn -0.3163 0.9487 -0.0000
vn -0.0000 0.8752 -0.4837
vn -0.0000 -0.8738 0.4862
vn -0.0000 -0.8754 0.4835
vn -0.0000 -0.1973 0.9803
vn 0.1946 -0.1570 -0.9682
vn 0.1946 0.1575 -0.9681
vn 0.1943 0.1578 0.9682
vn 0.1578 0.1944 0.9682
vn 0.1567 -0.1949 0.9682
vn 0.1943 -0.1573 0.9682
vn 0.8521 -0.2287 -0.4707
vn 0.8522 -0.2290 0.4705
vn 0.8743 -0.2921 0.3876
vn 0.8736 0.2912 0.3900
vn 0.8521 0.2296 0.4704
vn 0.2293 0.8519 -0.4709
vn 0.2295 0.8519 0.4707
vn 0.2913 0.8736 0.3898
vn 0.2940 -0.8757 0.3829
vn 0.2246 -0.8515 0.4737
vn 0.2940 -0.8757 -0.3830
vn -0.0000 0.1968 0.9804
vn 0.8753 -0.0000 -0.4836
vn 0.8754 -0.0000 0.4833
vn 0.3162 0.9487 -0.0000
vn 0.3163 0.9486 -0.0000
vn -0.0000 0.8753 0.4836
vn -0.0000 0.8754 0.4835
vn -0.1947 -0.1570 -0.9682
vn -0.1946 0.1575 -0.9682
vn -0.1575 0.1947 -0.9681
vn -0.1579 0.1947 0.9681
vn -0.1946 0.1578 0.9681
vn -0.1947 -0.1573 0.9682
vn -0.8736 0.2910 -0.3901
vn -0.8521 -0.2288 -0.4708
vn -0.8741 -0.2913 -0.3886
vn -0.8740 -0.2913 0.3890
vn -0.8520 -0.2288 0.4710
vn -0.8518 0.2295 0.4708
vn -0.8734 0.2909 0.3904
vn -0.2294 0.8504 -0.4735
vn -0.2931 0.8728 -0.3903
vn -0.2931 0.8726 0.3907
vn -0.2296 0.8503 0.4736
vn -0.2271 -0.8523 0.4713
vn -0.2917 -0.8751 -0.3862
vn -0.2269 -0.8524 -0.4711
vn -0.8753 -0.0000 -0.4835
vn -0.8752 -0.0000 0.4837
vn -0.9487 0.3160 -0.0000
vn -0.0000 0.8737 -0.4864
vn -0.0000 -0.8735 0.4869
vn -0.0000 -0.8752 0.4837
vn 0.1579 0.1947 0.9681
vn 0.1567 -0.1952 0.9682
vn 0.1947 -0.1574 0.9682
vn 0.8519 0.2295 -0.4708
vn 0.8736 0.2912 -0.3900
vn 0.8743 -0.2922 -0.3875
vn 0.8520 -0.2288 -0.4709
vn 0.8519 -0.2289 0.4710
vn 0.8741 -0.2922 0.3880
vn 0.8518 0.2296 0.4710
vn 0.2912 0.8736 -0.3899
vn 0.2294 0.8518 -0.4709
vn 0.2296 0.8517 0.4710
vn 0.2912 0.8734 0.3903
vn 0.2941 -0.8757 0.3830
vn 0.2245 -0.8512 0.4743
vn 0.2244 -0.8514 -0.4741
vn 0.2942 -0.8758 -0.3826
vn 0.8752 -0.0000 -0.4837
vn 0.8753 -0.0000 -0.4837
vn 0.9484 -0.3170 -0.0000
vn 0.8751 -0.0000 0.4839
vn 0.9487 0.3163 -0.0000
vn 0.3184 -0.9480 -0.0000
vn -0.0000 0.8751 0.4839
vn -0.0000 0.8736 0.4866
vn -0.0000 -0.8736 -0.4867
vn -0.0000 -0.8753 -0.4835
vn -0.1567 -0.1955 -0.9681
vn -0.1949 -0.1572 -0.9681
vn -0.1949 0.1572 -0.9681
vn -0.1572 0.1950 -0.9681
vn -0.1943 0.1577 0.9682
vn -0.1944 -0.1578 0.9682
vn -0.1572 -0.1949 0.9681
vn -0.8519 0.2293 -0.4709
vn -0.8518 -0.2293 -0.4710
vn -0.8739 -0.2920 -0.3887
vn -0.8738 -0.2920 0.3889
vn -0.8519 -0.2294 0.4708
vn -0.8519 0.2296 0.4706
vn -0.8735 0.2911 0.3902
vn -0.2292 0.8519 -0.4709
vn -0.2912 0.8735 -0.3900
vn -0.2912 0.8735 0.3902
vn -0.2296 0.8519 0.4707
vn -0.2271 -0.8524 0.4711
vn -0.2916 -0.8750 0.3865
vn -0.2268 -0.8523 -0.4713
vn -0.1974 -0.0000 -0.9803
vn -0.0000 -0.1979 -0.9802
vn -0.9484 -0.3169 -0.0000
vn -0.8753 -0.0000 0.4835
vn -0.3162 0.9487 -0.0000
vn -0.0000 0.8751 -0.4839
vn -0.0000 -0.8737 0.4865
vn -0.0000 0.1974 -0.9803
vn 0.1946 -0.1571 -0.9682
vn 0.1946 0.1576 -0.9682
vn 0.1943 0.1579 0.9682
vn 0.1566 -0.1949 0.9682
vn 0.8519 0.2297 -0.4707
vn 0.8734 0.2912 -0.3904
vn 0.8742 -0.2922 -0.3879
vn 0.8520 -0.2290 -0.4708
vn 0.8521 -0.2292 0.4706
vn 0.8741 -0.2922 0.3879
vn 0.8734 0.2912 0.3904
vn 0.8519 0.2299 0.4706
vn 0.2911 0.8735 -0.3902
vn 0.2294 0.8519 -0.4708
vn 0.2295 0.8520 0.4706
vn 0.2911 0.8735 0.3902
vn 0.2941 -0.8758 0.3827
vn 0.2245 -0.8515 0.4739
vn 0.2941 -0.8758 -0.3827
vn -0.0000 0.1969 0.9804
vn 0.8754 -0.0000 0.4835
vn -0.0000 0.8752 0.4837
vt 0.933345 0.791904
vt 0.958490 0.791904
vt 0.958490 0.829678
vt 0.933345 0.829678
vt 0.961171 0.791743
vt 0.960707 0.791743
vt 0.960707 0.753997
vt 0.961171 0.753997
vt 0.958515 0.791879
vt 0.958520 0.791904
vt 0.958490 0.791874
vt 0.958515 0.829685
vt 0.958490 0.829687
vt 0.958520 0.829678
vt 0.908106 0.791875
vt 0.908111 0.791883
vt 0.908082 0.791883
vt 0.908082 0.791874
vt 0.908106 0.829682
vt 0.908082 0.829687
vt 0.908082 0.829657
vt 0.908111 0.829657
vt 0.960692 0.791749
vt 0.960689 0.791742
vt 0.959171 0.817070
vt 0.959171 0.817060
vt 0.959186 0.817055
vt 0.960692 0.753971
vt 0.960707 0.753967
vt 0.960689 0.753996
vt 0.961186 0.753971
vt 0.961189 0.753996
vt 0.961171 0.753967
vt 0.958692 0.817055
vt 0.958707 0.817060
vt 0.958707 0.817070
vt 0.961189 0.791742
vt 0.961186 0.791749
vt 0.959171 0.817030
vt 0.959189 0.817030
vt 0.958689 0.817030
vt 0.958707 0.817030
vt 0.858817 0.791879
vt 0.858832 0.791874
vt 0.858832 0.791904
vt 0.858813 0.791904
vt 0.859310 0.791879
vt 0.859313 0.791904
vt 0.859295 0.791904
vt 0.859295 0.791874
vt 0.933345 0.791874
vt 0.959171 0.791886
vt 0.959189 0.791886
vt 0.858832 0.817048
vt 0.858813 0.817048
vt 0.882937 0.791883
vt 0.882937 0.829657
vt 0.859295 0.817048
vt 0.933345 0.829687
vt 0.882937 0.829687
vt 0.962171 0.753997
vt 0.962171 0.791743
vt 0.961707 0.791743
vt 0.961707 0.753997
vt 0.958707 0.791886
vt 0.933321 0.791879
vt 0.933316 0.791904
vt 0.933321 0.829685
vt 0.933316 0.829678
vt 0.882912 0.791875
vt 0.882937 0.791874
vt 0.882907 0.791883
vt 0.882912 0.829682
vt 0.882907 0.829657
vt 0.959186 0.791861
vt 0.959171 0.791856
vt 0.959171 0.791846
vt 0.962189 0.791742
vt 0.962186 0.791749
vt 0.962186 0.753971
vt 0.962189 0.753996
vt 0.962171 0.753967
vt 0.961692 0.753971
vt 0.961707 0.753967
vt 0.961689 0.753996
vt 0.961692 0.791749
vt 0.961689 0.791742
vt 0.958707 0.791846
vt 0.958707 0.791856
vt 0.958692 0.791861
vt 0.958689 0.791886
vt 0.858817 0.817073
vt 0.858832 0.817078
vt 0.859310 0.817073
vt 0.859295 0.817078
vt 0.859313 0.817048
vt 0.956719 0.716089
vt 0.981863 0.716089
vt 0.981863 0.753863
vt 0.956719 0.753863
vt 0.961671 0.791743
vt 0.961207 0.791743
vt 0.961207 0.753997
vt 0.961671 0.753997
vt 0.981888 0.716064
vt 0.981893 0.716089
vt 0.981863 0.716059
vt 0.981888 0.753870
vt 0.981863 0.753872
vt 0.981893 0.753863
vt 0.933311 0.791875
vt 0.933316 0.791883
vt 0.933286 0.791883
vt 0.933286 0.791874
vt 0.933311 0.829682
vt 0.933286 0.829687
vt 0.933286 0.829657
vt 0.933316 0.829657
vt 0.961192 0.791749
vt 0.858795 0.817098
vt 0.858795 0.817088
vt 0.858810 0.817083
vt 0.961192 0.753971
vt 0.961207 0.753967
vt 0.961686 0.753971
vt 0.961671 0.753967
vt 0.858317 0.817083
vt 0.858332 0.817088
vt 0.858332 0.817098
vt 0.961689 0.791742
vt 0.961686 0.791749
vt 0.858795 0.817058
vt 0.858813 0.817058
vt 0.858314 0.817058
vt 0.858332 0.817058
vt 0.859316 0.791879
vt 0.859331 0.791874
vt 0.859331 0.791904
vt 0.859810 0.791879
vt 0.859813 0.791904
vt 0.859795 0.791904
vt 0.859795 0.791874
vt 0.956719 0.716059
vt 0.858795 0.791914
vt 0.858813 0.791914
vt 0.859331 0.817048
vt 0.859313 0.817048
vt 0.908141 0.791883
vt 0.908141 0.829657
vt 0.859795 0.817048
vt 0.956719 0.753872
vt 0.908141 0.829687
vt 0.962671 0.753997
vt 0.962671 0.791743
vt 0.962207 0.791743
vt 0.962207 0.753997
vt 0.858332 0.791914
vt 0.956694 0.716064
vt 0.956689 0.716089
vt 0.956694 0.753870
vt 0.956689 0.753863
vt 0.908116 0.791875
vt 0.908141 0.791874
vt 0.908116 0.829682
vt 0.858810 0.791889
vt 0.858795 0.791884
vt 0.858795 0.791874
vt 0.962689 0.791742
vt 0.962686 0.791749
vt 0.962686 0.753971
vt 0.962689 0.753996
vt 0.962671 0.753967
vt 0.962192 0.753971
vt 0.962207 0.753967
vt 0.962192 0.791749
vt 0.962189 0.791742
vt 0.858332 0.791874
vt 0.858332 0.791884
vt 0.858317 0.791889
vt 0.858313 0.791914
vt 0.859316 0.817073
vt 0.859331 0.817078
vt 0.859810 0.817073
vt 0.859795 0.817078
vt 0.859813 0.817048
vt 0.956659 0.753937
vt 0.932125 0.753937
vt 0.932125 0.716089
vt 0.956659 0.716089
vt 0.958207 0.753997
vt 0.958671 0.753997
vt 0.958671 0.791816
vt 0.958207 0.791816
vt 0.956659 0.716059
vt 0.956684 0.716064
vt 0.956689 0.753937
vt 0.956684 0.753962
vt 0.956659 0.753967
vt 0.882877 0.716089
vt 0.882877 0.716059
vt 0.882902 0.716064
vt 0.882907 0.716089
vt 0.882877 0.753937
vt 0.882907 0.753937
vt 0.882902 0.753962
vt 0.882877 0.753967
vt 0.958207 0.791846
vt 0.958192 0.791841
vt 0.958189 0.791816
vt 0.958189 0.753996
vt 0.958192 0.753971
vt 0.958207 0.753967
vt 0.958671 0.753967
vt 0.958686 0.753971
vt 0.958689 0.753996
vt 0.958689 0.791816
vt 0.958686 0.791841
vt 0.958671 0.791846
vt 0.862795 0.816438
vt 0.862813 0.816438
vt 0.862810 0.816463
vt 0.862795 0.816468
vt 0.862331 0.816438
vt 0.862331 0.816468
vt 0.862316 0.816463
vt 0.862313 0.816438
vt 0.861331 0.791904
vt 0.861313 0.791904
vt 0.861316 0.791879
vt 0.861331 0.791874
vt 0.861795 0.791904
vt 0.861795 0.791874
vt 0.861810 0.791879
vt 0.861813 0.791904
vt 0.932125 0.716059
vt 0.862795 0.791904
vt 0.862813 0.791904
vt 0.861331 0.816438
vt 0.861313 0.816438
vt 0.858343 0.753937
vt 0.858343 0.716089
vt 0.861795 0.816438
vt 0.932125 0.753967
vt 0.858343 0.753967
vt 0.958707 0.791816
vt 0.958707 0.753997
vt 0.959171 0.753997
vt 0.959171 0.791816
vt 0.862331 0.791904
vt 0.932095 0.716089
vt 0.932100 0.716064
vt 0.932100 0.753962
vt 0.932095 0.753937
vt 0.858313 0.716089
vt 0.858319 0.716064
vt 0.858343 0.716059
vt 0.858318 0.753962
vt 0.858313 0.753937
vt 0.959189 0.791816
vt 0.959186 0.791840
vt 0.959171 0.791846
vt 0.959171 0.753967
vt 0.959185 0.753971
vt 0.959189 0.753996
vt 0.958689 0.753996
vt 0.958692 0.753971
vt 0.958707 0.753967
vt 0.958707 0.791846
vt 0.958692 0.791840
vt 0.958689 0.791816
vt 0.862795 0.791874
vt 0.862810 0.791879
vt 0.862313 0.791904
vt 0.862316 0.791879
vt 0.862331 0.791874
vt 0.861331 0.816468
vt 0.861316 0.816463
vt 0.861813 0.816438
vt 0.861810 0.816463
vt 0.861795 0.816468
vt 0.956659 0.791844
vt 0.932125 0.791844
vt 0.932125 0.753996
vt 0.956659 0.753996
vt 0.957707 0.753997
vt 0.958171 0.753997
vt 0.958171 0.791816
vt 0.957707 0.791816
vt 0.956659 0.753967
vt 0.956684 0.753972
vt 0.956689 0.753996
vt 0.956689 0.791844
vt 0.956684 0.791869
vt 0.956659 0.791874
vt 0.907471 0.716089
vt 0.907471 0.716059
vt 0.907496 0.716064
vt 0.907501 0.716089
vt 0.907471 0.753937
vt 0.907501 0.753937
vt 0.907496 0.753962
vt 0.907471 0.753967
vt 0.957707 0.791846
vt 0.957692 0.791841
vt 0.957689 0.791816
vt 0.957689 0.753996
vt 0.957692 0.753971
vt 0.957707 0.753967
vt 0.958171 0.753967
vt 0.958186 0.753971
vt 0.958189 0.753996
vt 0.958186 0.791841
vt 0.958171 0.791846
vt 0.862831 0.791904
vt 0.862816 0.791879
vt 0.862831 0.791874
vt 0.863295 0.791904
vt 0.863295 0.791874
vt 0.863310 0.791879
vt 0.863313 0.791904
vt 0.860831 0.791904
vt 0.860813 0.791904
vt 0.860816 0.791879
vt 0.860831 0.791874
vt 0.861295 0.791904
vt 0.861295 0.791874
vt 0.861310 0.791879
vt 0.932125 0.753967
vt 0.862831 0.816438
vt 0.860831 0.816438
vt 0.860813 0.816438
vt 0.882937 0.753937
vt 0.882937 0.716089
vt 0.861295 0.816438
vt 0.932125 0.791874
vt 0.882937 0.753967
vt 0.959207 0.791816
vt 0.959207 0.753997
vt 0.959671 0.753997
vt 0.959671 0.791816
vt 0.863295 0.816438
vt 0.932095 0.753996
vt 0.932100 0.753972
vt 0.932100 0.791869
vt 0.932095 0.791844
vt 0.882912 0.716064
vt 0.882937 0.716059
vt 0.882912 0.753962
vt 0.882907 0.753937
vt 0.959689 0.791816
vt 0.959686 0.791840
vt 0.959671 0.791846
vt 0.959671 0.753967
vt 0.959686 0.753971
vt 0.959689 0.753996
vt 0.959189 0.753996
vt 0.959192 0.753971
vt 0.959207 0.753967
vt 0.959207 0.791846
vt 0.959192 0.791840
vt 0.959189 0.791816
vt 0.862831 0.816468
vt 0.862816 0.816463
vt 0.863313 0.816438
vt 0.863310 0.816463
vt 0.863295 0.816468
vt 0.860831 0.816468
vt 0.860816 0.816463
vt 0.861310 0.816463
vt 0.861295 0.816468
vt 0.932065 0.791844
vt 0.907531 0.791844
vt 0.907531 0.753996
vt 0.932065 0.753997
vt 0.956707 0.753997
vt 0.957171 0.753997
vt 0.957171 0.791816
vt 0.956707 0.791816
vt 0.932065 0.753967
vt 0.932090 0.753972
vt 0.932095 0.753997
vt 0.932090 0.791869
vt 0.932065 0.791874
vt 0.932065 0.716089
vt 0.932065 0.716059
vt 0.932090 0.716064
vt 0.932095 0.716089
vt 0.932065 0.753937
vt 0.932090 0.753962
vt 0.956707 0.791846
vt 0.956692 0.791841
vt 0.956689 0.791816
vt 0.956692 0.753971
vt 0.956707 0.753967
vt 0.957171 0.753967
vt 0.957186 0.753971
vt 0.957189 0.753996
vt 0.957189 0.791816
vt 0.957186 0.791841
vt 0.957171 0.791846
vt 0.860295 0.816438
vt 0.860313 0.816438
vt 0.860310 0.816463
vt 0.860295 0.816468
vt 0.859831 0.816438
vt 0.859831 0.816468
vt 0.859816 0.816463
vt 0.859813 0.816438
vt 0.861831 0.791904
vt 0.861816 0.791879
vt 0.861831 0.791874
vt 0.862295 0.791904
vt 0.862295 0.791874
vt 0.862310 0.791879
vt 0.862313 0.791904
vt 0.907531 0.753967
vt 0.860295 0.791904
vt 0.860313 0.791904
vt 0.861831 0.816438
vt 0.907531 0.753937
vt 0.907531 0.716089
vt 0.862295 0.816438
vt 0.907531 0.791874
vt 0.959707 0.791816
vt 0.959707 0.753997
vt 0.960171 0.753997
vt 0.960171 0.791816
vt 0.859831 0.791904
vt 0.907501 0.753996
vt 0.907506 0.753972
vt 0.907506 0.791869
vt 0.907501 0.791844
vt 0.907506 0.716064
vt 0.907531 0.716059
vt 0.907506 0.753962
vt 0.960189 0.791816
vt 0.960186 0.791840
vt 0.960171 0.791846
vt 0.960171 0.753967
vt 0.960186 0.753971
vt 0.960189 0.753996
vt 0.959689 0.753996
vt 0.959692 0.753971
vt 0.959707 0.753967
vt 0.959707 0.791846
vt 0.959692 0.791840
vt 0.959689 0.791816
vt 0.860295 0.791874
vt 0.860310 0.791879
vt 0.859816 0.791879
vt 0.859831 0.791874
vt 0.861831 0.816468
vt 0.861816 0.816463
vt 0.862313 0.816438
vt 0.862310 0.816463
vt 0.862295 0.816468
vt 0.907471 0.791844
vt 0.882937 0.791844
vt 0.882937 0.753996
vt 0.907471 0.753996
vt 0.957207 0.753997
vt 0.957671 0.753997
vt 0.957671 0.791816
vt 0.957207 0.791816
vt 0.907496 0.753972
vt 0.907496 0.791869
vt 0.907471 0.791874
vt 0.882877 0.753996
vt 0.882902 0.753972
vt 0.882907 0.753997
vt 0.882877 0.791844
vt 0.882907 0.791844
vt 0.882902 0.791869
vt 0.882877 0.791874
vt 0.957207 0.791846
vt 0.957192 0.791841
vt 0.957189 0.753996
vt 0.957192 0.753971
vt 0.957207 0.753967
vt 0.957671 0.753967
vt 0.957686 0.753971
vt 0.957689 0.753996
vt 0.957686 0.791841
vt 0.957671 0.791846
vt 0.860795 0.816438
vt 0.860810 0.816463
vt 0.860795 0.816468
vt 0.860331 0.816438
vt 0.860331 0.816468
vt 0.860316 0.816463
vt 0.863331 0.791904
vt 0.863316 0.791879
vt 0.863331 0.791874
vt 0.863795 0.791904
vt 0.863795 0.791874
vt 0.863810 0.791879
vt 0.863813 0.791904
vt 0.860795 0.791904
vt 0.863331 0.816438
vt 0.858343 0.791844
vt 0.858343 0.753996
vt 0.863795 0.816438
vt 0.858343 0.791874
vt 0.960207 0.791816
vt 0.960207 0.753997
vt 0.960671 0.753997
vt 0.960671 0.791816
vt 0.860331 0.791904
vt 0.882907 0.753996
vt 0.882912 0.753972
vt 0.882912 0.791869
vt 0.882907 0.791844
vt 0.858313 0.753997
vt 0.858319 0.753972
vt 0.858319 0.791869
vt 0.858313 0.791844
vt 0.960689 0.791816
vt 0.960686 0.791840
vt 0.960671 0.791846
vt 0.960671 0.753967
vt 0.960686 0.753971
vt 0.960689 0.753996
vt 0.960189 0.753996
vt 0.960192 0.753971
vt 0.960207 0.753967
vt 0.960207 0.791846
vt 0.960192 0.791840
vt 0.960189 0.791816
vt 0.860795 0.791874
vt 0.860810 0.791879
vt 0.860316 0.791879
vt 0.860331 0.791874
vt 0.863331 0.816468
vt 0.863316 0.816463
vt 0.863813 0.816438
vt 0.863810 0.816463
vt 0.863795 0.816468
s 0
f 3/1/1 4/2/1 1/3/1
f 1/3/1 2/4/1 3/1/1
f 7/5/2 8/6/2 5/7/2
f 5/7/2 6/8/2 7/5/2
f 10/9/3 11/10/3 4/2/3
f 4/2/4 9/11/4 10/9/4
f 13/12/5 14/13/5 1/3/5
f 1/3/6 12/14/6 13/12/6
f 17/15/7 18/16/7 15/17/7
f 15/17/8 16/18/8 17/15/8
f 21/19/9 22/20/9 19/21/9
f 19/21/10 20/22/10 21/19/10
f 13/23/11 12/24/11 8/6/11
f 8/25/12 23/26/12 13/27/12
f 10/28/13 24/29/13 5/7/13
f 5/7/14 11/30/14 10/28/14
f 21/31/15 20/32/15 6/8/15
f 6/8/16 25/33/16 21/31/16
f 17/34/17 26/35/17 7/36/17
f 7/5/18 18/37/18 17/38/18
f 13/27/19 23/26/19 27/39/19
f 27/39/20 14/40/20 13/27/20
f 17/34/21 16/41/21 28/42/21
f 28/42/22 26/35/22 17/34/22
f 21/43/23 25/44/23 29/45/23
f 29/45/24 22/46/24 21/43/24
f 10/47/25 9/48/25 30/49/25
f 30/49/26 24/50/26 10/47/26
f 12/14/27 1/3/27 4/2/27
f 4/2/27 11/10/27 12/14/27
f 9/11/28 4/2/28 3/1/28
f 3/1/28 31/51/28 9/11/28
f 20/22/29 19/21/29 15/17/29
f 15/17/30 18/16/30 20/22/30
f 11/30/31 5/7/31 8/6/31
f 8/6/31 12/24/31 11/30/31
f 25/33/32 6/8/32 5/7/32
f 5/7/32 24/29/32 25/33/32
f 18/37/33 7/5/33 6/8/33
f 6/8/33 20/32/33 18/37/33
f 23/26/34 8/25/34 7/36/34
f 7/36/34 26/35/34 23/26/34
f 26/35/35 28/42/35 27/39/35
f 27/39/35 23/26/35 26/35/35
f 14/40/36 27/39/36 32/52/36
f 32/52/37 33/53/37 14/40/37
f 22/46/38 29/45/38 34/54/38
f 34/54/38 35/55/38 22/46/38
f 24/50/39 30/49/39 29/45/39
f 29/45/39 25/44/39 24/50/39
f 37/56/40 15/17/40 19/21/40
f 19/21/40 36/57/40 37/56/40
f 34/54/41 29/45/41 30/49/41
f 30/49/41 38/58/41 34/54/41
f 2/4/42 1/3/42 14/13/42
f 14/13/43 33/59/43 2/4/43
f 36/57/44 19/21/44 22/20/44
f 22/20/44 35/60/44 36/57/44
f 41/61/45 42/62/45 39/63/45
f 39/63/45 40/64/45 41/61/45
f 43/65/46 32/52/46 27/39/46
f 27/39/46 28/42/46 43/65/46
f 45/66/47 31/51/47 3/1/47
f 3/1/48 44/67/48 45/66/48
f 46/68/49 47/69/49 2/4/49
f 2/4/50 33/59/50 46/68/50
f 49/70/51 50/71/51 37/56/51
f 37/56/52 48/72/52 49/70/52
f 51/73/53 52/74/53 36/57/53
f 36/57/54 35/60/54 51/73/54
f 46/75/55 53/76/55 42/77/55
f 42/62/56 47/78/56 46/79/56
f 45/80/57 44/81/57 41/61/57
f 41/61/58 54/82/58 45/80/58
f 51/83/59 55/84/59 40/64/59
f 40/64/60 52/85/60 51/83/60
f 49/86/61 48/87/61 39/63/61
f 39/88/62 56/89/62 49/90/62
f 46/75/63 33/53/63 32/52/63
f 32/52/64 53/76/64 46/75/64
f 49/90/65 56/89/65 43/65/65
f 43/65/66 50/91/66 49/90/66
f 51/92/67 35/55/67 34/54/67
f 34/54/68 55/93/68 51/92/68
f 45/94/69 54/95/69 38/58/69
f 38/58/70 31/96/70 45/94/70
f 3/1/71 2/4/71 47/69/71
f 47/69/72 44/67/72 3/1/72
f 15/17/73 37/56/73 50/71/73
f 50/71/74 16/18/74 15/17/74
f 37/56/75 36/57/75 52/74/75
f 52/74/76 48/72/76 37/56/76
f 42/62/77 41/61/77 44/81/77
f 44/81/78 47/78/78 42/62/78
f 41/61/79 40/64/79 55/84/79
f 55/84/79 54/82/79 41/61/79
f 40/64/80 39/63/80 48/87/80
f 48/87/81 52/85/81 40/64/81
f 39/88/82 42/77/82 53/76/82
f 53/76/83 56/89/83 39/88/83
f 32/52/84 43/65/84 56/89/84
f 56/89/84 53/76/84 32/52/84
f 34/54/85 38/58/85 54/95/85
f 54/95/86 55/93/86 34/54/86
f 43/65/87 28/42/87 16/41/87
f 16/41/88 50/91/88 43/65/88
f 38/58/89 30/49/89 9/48/89
f 9/48/89 31/96/89 38/58/89
f 59/97/1 60/98/1 57/99/1
f 57/99/1 58/100/1 59/97/1
f 63/101/2 64/102/2 61/103/2
f 61/103/2 62/104/2 63/101/2
f 66/105/3 67/106/3 60/98/3
f 60/98/90 65/107/90 66/105/90
f 69/108/91 70/109/91 57/99/91
f 57/99/92 68/110/92 69/108/92
f 73/111/93 74/112/93 71/113/93
f 71/113/94 72/114/94 73/111/94
f 77/115/9 78/116/9 75/117/9
f 75/117/10 76/118/10 77/115/10
f 69/119/95 68/37/95 64/102/95
f 64/120/96 79/121/96 69/122/96
f 66/123/97 80/124/97 61/103/97
f 61/103/98 67/32/98 66/123/98
f 77/125/99 76/85/99 62/104/99
f 62/104/100 81/126/100 77/125/100
f 73/127/101 82/128/101 63/129/101
f 63/101/102 74/130/102 73/131/102
f 69/122/19 79/121/19 83/132/19
f 83/132/103 70/133/103 69/122/103
f 73/127/104 72/134/104 84/135/104
f 84/135/105 82/128/105 73/127/105
f 77/136/106 81/137/106 85/138/106
f 85/138/107 78/48/107 77/136/107
f 66/139/108 65/140/108 86/141/108
f 86/141/109 80/142/109 66/139/109
f 68/110/110 57/99/110 60/98/110
f 60/98/27 67/106/27 68/110/27
f 65/107/111 60/98/111 59/97/111
f 59/97/28 87/143/28 65/107/28
f 76/118/112 75/117/112 71/113/112
f 71/113/112 74/112/112 76/118/112
f 67/32/113 61/103/113 64/102/113
f 64/102/113 68/37/113 67/32/113
f 81/126/32 62/104/32 61/103/32
f 61/103/114 80/124/114 81/126/114
f 74/130/115 63/101/115 62/104/115
f 62/104/115 76/85/115 74/130/115
f 79/121/116 64/120/116 63/129/116
f 63/129/116 82/128/116 79/121/116
f 82/128/35 84/135/35 83/132/35
f 83/132/35 79/121/35 82/128/35
f 70/133/36 83/132/36 88/144/36
f 88/144/37 89/145/37 70/133/37
f 78/48/117 85/138/117 90/146/117
f 90/146/38 91/147/38 78/48/38
f 80/142/118 86/141/118 85/138/118
f 85/138/119 81/137/119 80/142/119
f 93/148/40 71/113/40 75/117/40
f 75/117/40 92/149/40 93/148/40
f 90/146/41 85/138/41 86/141/41
f 86/141/41 94/150/41 90/146/41
f 58/100/120 57/99/120 70/109/120
f 70/109/43 89/151/43 58/100/43
f 92/149/121 75/117/121 78/116/121
f 78/116/44 91/152/44 92/149/44
f 97/153/45 98/154/45 95/155/45
f 95/155/45 96/156/45 97/153/45
f 99/157/46 88/144/46 83/132/46
f 83/132/46 84/135/46 99/157/46
f 101/158/47 87/143/47 59/97/47
f 59/97/122 100/159/122 101/158/122
f 102/160/123 103/161/123 58/100/123
f 58/100/50 89/151/50 102/160/50
f 105/162/51 106/163/51 93/148/51
f 93/148/52 104/16/52 105/162/52
f 107/164/124 108/22/124 92/149/124
f 92/149/54 91/152/54 107/164/54
f 102/165/125 109/166/125 98/167/125
f 98/154/126 103/168/126 102/169/126
f 101/170/127 100/171/127 97/153/127
f 97/153/58 110/172/58 101/170/58
f 107/173/128 111/174/128 96/156/128
f 96/156/129 108/81/129 107/173/129
f 105/175/130 104/176/130 95/155/130
f 95/177/131 112/178/131 105/179/131
f 102/165/63 89/145/63 88/144/63
f 88/144/132 109/166/132 102/165/132
f 105/179/133 112/178/133 99/157/133
f 99/157/134 106/180/134 105/179/134
f 107/181/135 91/147/135 90/146/135
f 90/146/136 111/182/136 107/181/136
f 101/183/137 110/184/137 94/150/137
f 94/150/138 87/185/138 101/183/138
f 59/97/71 58/100/71 103/161/71
f 103/161/72 100/159/72 59/97/72
f 71/113/73 93/148/73 106/163/73
f 106/163/139 72/114/139 71/113/139
f 93/148/140 92/149/140 108/22/140
f 108/22/76 104/16/76 93/148/76
f 98/154/141 97/153/141 100/171/141
f 100/171/78 103/168/78 98/154/78
f 97/153/79 96/156/79 111/174/79
f 111/174/79 110/172/79 97/153/79
f 96/156/80 95/155/80 104/176/80
f 104/176/142 108/81/142 96/156/142
f 95/177/143 98/167/143 109/166/143
f 109/166/143 112/178/143 95/177/143
f 88/144/84 99/157/84 112/178/84
f 112/178/84 109/166/84 88/144/84
f 90/146/86 94/150/86 110/184/86
f 110/184/86 111/182/86 90/146/86
f 99/157/87 84/135/87 72/134/87
f 72/134/88 106/180/88 99/157/88
f 94/150/144 86/141/144 65/140/144
f 65/140/89 87/185/89 94/150/89
f 113/186/1 114/187/1 115/188/1
f 115/188/1 116/189/1 113/186/1
f 117/190/2 118/191/2 119/192/2
f 119/192/2 120/193/2 117/190/2
f 116/189/145 121/194/145 122/195/145
f 122/195/146 123/159/146 116/189/146
f 113/186/147 124/196/147 125/197/147
f 125/197/148 126/198/148 113/186/148
f 127/199/149 128/200/149 129/201/149
f 129/201/150 130/202/150 127/199/150
f 131/203/151 132/204/151 133/205/151
f 133/205/152 134/206/152 131/203/152
f 120/193/153 135/207/153 125/208/153
f 125/208/154 124/209/154 120/193/154
f 117/190/155 123/210/155 122/211/155
f 122/211/156 136/212/156 117/190/156
f 118/191/157 137/213/157 133/214/157
f 133/214/158 132/215/158 118/191/158
f 119/192/159 130/216/159 129/217/159
f 129/217/160 138/218/160 119/192/160
f 139/219/161 126/220/161 125/221/161
f 125/221/162 135/222/162 139/219/162
f 140/223/163 138/224/163 129/225/163
f 129/225/164 128/226/164 140/223/164
f 141/227/165 134/228/165 133/229/165
f 133/229/166 137/230/166 141/227/166
f 142/231/167 136/232/167 122/233/167
f 122/233/168 121/234/168 142/231/168
f 116/189/169 123/159/169 124/196/169
f 124/196/169 113/186/169 116/189/169
f 115/188/170 143/235/170 121/194/170
f 121/194/171 116/189/171 115/188/171
f 127/199/172 130/202/172 132/204/172
f 132/204/172 131/203/172 127/199/172
f 120/193/173 124/209/173 123/210/173
f 123/210/173 117/190/173 120/193/173
f 117/190/32 136/212/32 137/213/32
f 137/213/32 118/191/32 117/190/32
f 118/191/174 132/215/174 130/216/174
f 130/216/174 119/192/174 118/191/174
f 119/192/175 138/218/175 135/207/175
f 135/207/175 120/193/175 119/192/175
f 139/219/176 135/222/176 138/224/176
f 138/224/176 140/223/176 139/219/176
f 144/236/177 145/237/177 126/220/177
f 126/220/178 139/219/178 144/236/178
f 146/238/179 147/239/179 134/228/179
f 134/228/180 141/227/180 146/238/180
f 141/227/39 137/230/39 136/232/39
f 136/232/39 142/231/39 141/227/39
f 131/203/40 148/240/40 149/241/40
f 149/241/40 127/199/40 131/203/40
f 142/231/41 150/242/41 146/238/41
f 146/238/41 141/227/41 142/231/41
f 126/198/181 145/243/181 114/187/181
f 114/187/181 113/186/181 126/198/181
f 134/206/182 147/244/182 148/240/182
f 148/240/183 131/203/183 134/206/183
f 151/245/45 152/246/45 153/247/45
f 153/247/45 154/248/45 151/245/45
f 139/219/46 140/223/46 155/249/46
f 155/249/46 144/236/46 139/219/46
f 115/188/184 156/250/184 157/251/184
f 157/251/185 143/235/185 115/188/185
f 114/187/186 145/243/186 158/252/186
f 158/252/187 159/253/187 114/187/187
f 149/241/188 160/254/188 161/255/188
f 161/255/189 162/256/189 149/241/189
f 148/240/190 147/244/190 163/257/190
f 163/257/191 164/258/191 148/240/191
f 154/248/192 159/259/192 158/260/192
f 158/260/193 165/261/193 154/248/193
f 153/247/194 166/262/194 157/263/194
f 157/263/195 156/264/195 153/247/195
f 152/246/196 164/265/196 163/266/196
f 163/266/197 167/267/197 152/246/197
f 151/245/198 168/268/198 161/269/198
f 161/269/199 160/270/199 151/245/199
f 144/236/200 165/271/200 158/272/200
f 158/272/201 145/237/201 144/236/201
f 155/249/202 162/273/202 161/274/202
f 161/274/203 168/275/203 155/249/203
f 146/238/204 167/276/204 163/277/204
f 163/277/205 147/239/205 146/238/205
f 150/242/206 143/278/206 157/279/206
f 157/279/207 166/280/207 150/242/207
f 159/253/208 156/250/208 115/188/208
f 115/188/208 114/187/208 159/253/208
f 162/256/209 128/200/209 127/199/209
f 127/199/209 149/241/209 162/256/209
f 164/258/210 160/254/210 149/241/210
f 149/241/210 148/240/210 164/258/210
f 156/264/211 159/259/211 154/248/211
f 154/248/211 153/247/211 156/264/211
f 167/267/212 166/262/212 153/247/212
f 153/247/213 152/246/213 167/267/213
f 160/270/214 164/265/214 152/246/214
f 152/246/214 151/245/214 160/270/214
f 165/261/215 168/268/215 151/245/215
f 151/245/216 154/248/216 165/261/216
f 168/275/217 165/271/217 144/236/217
f 144/236/217 155/249/217 168/275/217
f 166/280/218 167/276/218 146/238/218
f 146/238/219 150/242/219 166/280/219
f 128/226/220 162/273/220 155/249/220
f 155/249/221 140/223/221 128/226/221
f 121/234/222 143/278/222 150/242/222
f 150/242/223 142/231/223 121/234/223
f 169/281/1 170/282/1 171/283/1
f 171/283/1 172/284/1 169/281/1
f 173/285/2 174/286/2 175/287/2
f 175/287/2 176/288/2 173/285/2
f 172/284/224 177/289/224 178/290/224
f 178/290/225 179/291/225 172/284/225
f 169/281/226 180/292/226 181/293/226
f 181/293/227 182/294/227 169/281/227
f 183/295/228 184/296/228 185/297/228
f 185/297/229 186/298/229 183/295/229
f 187/299/230 188/300/230 189/301/230
f 189/301/231 190/302/231 187/299/231
f 176/288/232 191/303/232 181/304/232
f 181/304/233 180/305/233 176/288/233
f 173/285/234 179/306/234 178/307/234
f 178/307/235 192/308/235 173/285/235
f 174/286/236 193/309/236 189/310/236
f 189/310/237 188/311/237 174/286/237
f 175/287/238 186/209/238 185/312/238
f 185/312/239 194/313/239 175/287/239
f 195/314/240 182/237/240 181/315/240
f 181/315/241 191/316/241 195/314/241
f 196/317/242 194/318/242 185/319/242
f 185/319/243 184/320/243 196/317/243
f 197/321/244 190/322/244 189/323/244
f 189/323/245 193/324/245 197/321/245
f 198/325/246 192/326/246 178/327/246
f 178/327/247 177/228/247 198/325/247
f 172/284/248 179/291/248 180/292/248
f 180/292/169 169/281/169 172/284/169
f 171/283/170 199/328/170 177/289/170
f 177/289/170 172/284/170 171/283/170
f 183/295/112 186/298/112 188/300/112
f 188/300/112 187/299/112 183/295/112
f 176/288/173 180/305/173 179/306/173
f 179/306/173 173/285/173 176/288/173
f 173/285/249 192/308/249 193/309/249
f 193/309/249 174/286/249 173/285/249
f 174/286/250 188/311/250 186/209/250
f 186/209/33 175/287/33 174/286/33
f 175/287/175 194/313/175 191/303/175
f 191/303/175 176/288/175 175/287/175
f 195/314/251 191/316/251 194/318/251
f 194/318/251 196/317/251 195/314/251
f 200/329/177 201/220/177 182/237/177
f 182/237/252 195/314/252 200/329/252
f 202/330/253 203/331/253 190/322/253
f 190/322/254 197/321/254 202/330/254
f 197/321/39 193/324/39 192/326/39
f 192/326/118 198/325/118 197/321/118
f 187/299/40 204/332/40 205/333/40
f 205/333/40 183/295/40 187/299/40
f 198/325/41 206/334/41 202/330/41
f 202/330/41 197/321/41 198/325/41
f 182/294/181 201/335/181 170/282/181
f 170/282/181 169/281/181 182/294/181
f 190/302/255 203/336/255 204/332/255
f 204/332/255 187/299/255 190/302/255
f 207/337/45 208/338/45 209/339/45
f 209/339/45 210/340/45 207/337/45
f 195/314/46 196/317/46 211/341/46
f 211/341/46 200/329/46 195/314/46
f 171/283/256 212/342/256 213/343/256
f 213/343/185 199/328/185 171/283/185
f 170/282/186 201/335/186 214/344/186
f 214/344/257 215/345/257 170/282/257
f 205/333/258 216/202/258 217/346/258
f 217/346/259 218/347/259 205/333/259
f 204/332/260 203/336/260 219/348/260
f 219/348/261 220/349/261 204/332/261
f 210/340/192 215/350/192 214/351/192
f 214/351/193 221/352/193 210/340/193
f 209/339/194 222/353/194 213/354/194
f 213/354/262 212/355/262 209/339/262
f 208/338/263 220/356/263 219/357/263
f 219/357/264 223/358/264 208/338/264
f 207/337/265 224/359/265 217/360/265
f 217/360/266 216/361/266 207/337/266
f 200/329/200 221/362/200 214/363/200
f 214/363/267 201/220/267 200/329/267
f 211/341/268 218/364/268 217/365/268
f 217/365/269 224/366/269 211/341/269
f 202/330/270 223/367/270 219/368/270
f 219/368/271 203/331/271 202/330/271
f 206/334/206 199/239/206 213/369/206
f 213/369/272 222/370/272 206/334/272
f 215/345/208 212/342/208 171/283/208
f 171/283/208 170/282/208 215/345/208
f 218/347/273 184/296/273 183/295/273
f 183/295/273 205/333/273 218/347/273
f 220/349/140 216/202/140 205/333/140
f 205/333/140 204/332/140 220/349/140
f 212/355/274 215/350/274 210/340/274
f 210/340/211 209/339/211 212/355/211
f 223/358/212 222/353/212 209/339/212
f 209/339/213 208/338/213 223/358/213
f 216/361/81 220/356/81 208/338/81
f 208/338/275 207/337/275 216/361/275
f 221/352/216 224/359/216 207/337/216
f 207/337/215 210/340/215 221/352/215
f 224/366/276 221/362/276 200/329/276
f 200/329/277 211/341/277 224/366/277
f 222/370/218 223/367/218 202/330/218
f 202/330/219 206/334/219 222/370/219
f 184/320/278 218/364/278 211/341/278
f 211/341/279 196/317/279 184/320/279
f 177/228/222 199/239/222 206/334/222
f 206/334/223 198/325/223 177/228/223
f 227/371/1 228/372/1 225/373/1
f 225/373/1 226/374/1 227/371/1
f 231/375/2 232/376/2 229/377/2
f 229/377/2 230/378/2 231/375/2
f 226/374/145 235/379/145 233/380/145
f 233/380/280 234/381/280 226/374/280
f 227/371/281 238/345/281 236/382/281
f 236/382/282 237/383/282 227/371/282
f 241/384/283 242/385/283 239/386/283
f 239/386/284 240/387/284 241/384/284
f 245/388/285 246/253/285 243/389/285
f 243/389/152 244/379/152 245/388/152
f 230/378/286 247/390/286 236/391/286
f 236/391/154 238/392/154 230/378/154
f 231/375/287 234/291/287 233/393/287
f 233/393/288 248/394/288 231/375/288
f 232/376/289 249/395/289 243/396/289
f 243/396/290 246/397/290 232/376/290
f 229/377/291 240/398/291 239/399/291
f 239/399/292 250/400/292 229/377/292
f 251/401/293 237/402/293 236/403/293
f 236/403/294 247/404/294 251/401/294
f 252/405/295 250/406/295 239/407/295
f 239/407/296 242/408/296 252/405/296
f 253/409/297 244/234/297 243/410/297
f 243/410/166 249/411/166 253/409/166
f 254/412/298 248/413/298 233/414/298
f 233/414/299 235/415/299 254/412/299
f 226/374/169 234/381/169 238/345/169
f 238/345/169 227/371/169 226/374/169
f 225/373/170 255/416/170 235/379/170
f 235/379/171 226/374/171 225/373/171
f 241/384/172 240/387/172 246/253/172
f 246/253/172 245/388/172 241/384/172
f 230/378/300 238/392/300 234/291/300
f 234/291/173 231/375/173 230/378/173
f 231/375/32 248/394/32 249/395/32
f 249/395/32 232/376/32 231/375/32
f 232/376/174 246/397/174 240/398/174
f 240/398/301 229/377/301 232/376/301
f 229/377/175 250/400/175 247/390/175
f 247/390/302 230/378/302 229/377/302
f 251/401/176 247/404/176 250/406/176
f 250/406/176 252/405/176 251/401/176
f 256/417/252 257/418/252 237/402/252
f 237/402/303 251/401/303 256/417/303
f 258/419/304 259/278/304 244/234/304
f 244/234/305 253/409/305 258/419/305
f 253/409/39 249/411/39 248/413/39
f 248/413/39 254/412/39 253/409/39
f 245/388/40 261/420/40 260/421/40
f 260/421/40 241/384/40 245/388/40
f 254/412/41 262/422/41 258/419/41
f 258/419/41 253/409/41 254/412/41
f 237/383/181 257/423/181 228/372/181
f 228/372/181 227/371/181 237/383/181
f 244/379/182 259/416/182 261/420/182
f 261/420/183 245/388/183 244/379/183
f 265/424/45 266/425/45 263/426/45
f 263/426/45 264/427/45 265/424/45
f 251/401/46 252/405/46 267/428/46
f 267/428/46 256/417/46 251/401/46
f 225/373/184 269/429/184 268/430/184
f 268/430/185 255/416/185 225/373/185
f 228/372/186 257/423/186 270/431/186
f 270/431/257 271/432/257 228/372/257
f 260/421/188 274/298/188 272/433/188
f 272/433/306 273/434/306 260/421/306
f 261/420/307 259/416/307 275/435/307
f 275/435/308 276/300/308 261/420/308
f 264/427/309 271/436/309 270/437/309
f 270/437/310 277/438/310 264/427/310
f 263/426/311 278/439/311 268/440/311
f 268/440/312 269/441/312 263/426/312
f 266/425/313 276/442/313 275/443/313
f 275/443/314 279/444/314 266/425/314
f 265/424/198 280/445/198 272/446/198
f 272/446/315 274/447/315 265/424/315
f 256/417/316 277/448/316 270/449/316
f 270/449/317 257/418/317 256/417/317
f 267/428/318 273/140/318 272/450/318
f 272/450/319 280/451/319 267/428/319
f 258/419/320 279/452/320 275/453/320
f 275/453/321 259/278/321 258/419/321
f 262/422/322 255/454/322 268/455/322
f 268/455/323 278/456/323 262/422/323
f 271/432/208 269/429/208 225/373/208
f 225/373/208 228/372/208 271/432/208
f 273/434/209 242/385/209 241/384/209
f 241/384/209 260/421/209 273/434/209
f 276/300/210 274/298/210 260/421/210
f 260/421/210 261/420/210 276/300/210
f 269/441/324 271/436/324 264/427/324
f 264/427/325 263/426/325 269/441/325
f 279/444/326 278/439/326 263/426/326
f 263/426/326 266/425/326 279/444/326
f 274/447/327 276/442/327 266/425/327
f 266/425/327 265/424/327 274/447/327
f 277/438/215 280/445/215 265/424/215
f 265/424/328 264/427/328 277/438/328
f 280/451/276 277/448/276 256/417/276
f 256/417/276 267/428/276 280/451/276
f 278/456/329 279/452/329 258/419/329
f 258/419/329 262/422/329 278/456/329
f 242/408/330 273/140/330 267/428/330
f 267/428/331 252/405/331 242/408/331
f 235/415/332 255/454/332 262/422/332
f 262/422/333 254/412/333 235/415/333
f 283/457/1 284/458/1 281/459/1
f 281/459/1 282/460/1 283/457/1
f 287/461/2 288/462/2 285/463/2
f 285/463/2 286/464/2 287/461/2
f 282/460/334 291/302/334 289/465/334
f 289/465/335 290/429/335 282/460/335
f 283/457/336 294/432/336 292/466/336
f 292/466/337 293/467/337 283/457/337
f 297/468/228 298/206/228 295/469/228
f 295/469/338 296/470/338 297/468/338
f 301/471/339 302/472/339 299/473/339
f 299/473/340 300/474/340 301/471/340
f 286/464/286 303/475/286 292/476/286
f 292/476/341 294/398/341 286/464/341
f 287/461/342 290/477/342 289/478/342
f 289/478/343 304/479/343 287/461/343
f 288/462/344 305/480/344 299/481/344
f 299/481/345 302/482/345 288/462/345
f 285/463/346 296/305/346 295/483/346
f 295/483/347 306/484/347 285/463/347
f 307/485/348 293/331/348 292/486/348
f 292/486/349 303/487/349 307/485/349
f 308/488/350 306/489/350 295/490/350
f 295/490/351 298/402/351 308/488/351
f 309/491/352 300/320/352 299/492/352
f 299/492/353 305/493/353 309/491/353
f 310/494/298 304/495/298 289/496/298
f 289/496/354 291/497/354 310/494/354
f 282/460/355 290/429/355 294/432/355
f 294/432/355 283/457/355 282/460/355
f 281/459/170 311/336/170 291/302/170
f 291/302/356 282/460/356 281/459/356
f 297/468/29 296/470/29 302/472/29
f 302/472/29 301/471/29 297/468/29
f 286/464/31 294/398/31 290/477/31
f 290/477/31 287/461/31 286/464/31
f 287/461/357 304/479/357 305/480/357
f 305/480/357 288/462/357 287/461/357
f 288/462/115 302/482/115 296/305/115
f 296/305/358 285/463/358 288/462/358
f 285/463/302 306/484/302 303/475/302
f 303/475/175 286/464/175 285/463/175
f 307/485/359 303/487/359 306/489/359
f 306/489/359 308/488/359 307/485/359
f 312/498/252 313/322/252 293/331/252
f 293/331/360 307/485/360 312/498/360
f 314/499/361 315/364/361 300/320/361
f 300/320/38 309/491/38 314/499/38
f 309/491/39 305/493/39 304/495/39
f 304/495/39 310/494/39 309/491/39
f 301/471/40 317/500/40 316/501/40
f 316/501/40 297/468/40 301/471/40
f 310/494/41 318/502/41 314/499/41
f 314/499/41 309/491/41 310/494/41
f 293/467/181 313/71/181 284/458/181
f 284/458/362 283/457/362 293/467/362
f 300/474/255 315/503/255 317/500/255
f 317/500/255 301/471/255 300/474/255
f 321/504/45 322/505/45 319/506/45
f 319/506/45 320/507/45 321/504/45
f 307/485/46 308/488/46 323/508/46
f 323/508/46 312/498/46 307/485/46
f 281/459/363 325/509/363 324/510/363
f 324/510/185 311/336/185 281/459/185
f 284/458/186 313/71/186 326/511/186
f 326/511/364 327/512/364 284/458/364
f 316/501/365 330/513/365 328/514/365
f 328/514/259 329/244/259 316/501/259
f 317/500/366 315/503/366 331/515/366
f 331/515/53 332/516/53 317/500/53
f 320/507/367 327/517/367 326/518/367
f 326/518/368 333/519/368 320/507/368
f 319/506/369 334/520/369 324/521/369
f 324/521/370 325/522/370 319/506/370
f 322/505/371 332/523/371 331/524/371
f 331/524/372 335/525/372 322/505/372
f 321/504/373 336/526/373 328/527/373
f 328/527/374 330/528/374 321/504/374
f 312/498/375 333/529/375 326/530/375
f 326/530/376 313/322/376 312/498/376
f 323/508/377 329/418/377 328/531/377
f 328/531/378 336/532/378 323/508/378
f 314/499/379 335/533/379 331/534/379
f 331/534/380 315/364/380 314/499/380
f 318/502/322 311/535/322 324/536/322
f 324/536/381 334/537/381 318/502/381
f 327/512/208 325/509/208 281/459/208
f 281/459/208 284/458/208 327/512/208
f 329/244/273 298/206/273 297/468/273
f 297/468/382 316/501/382 329/244/382
f 332/516/140 330/513/140 316/501/140
f 316/501/140 317/500/140 332/516/140
f 325/522/324 327/517/324 320/507/324
f 320/507/274 319/506/274 325/522/274
f 335/525/326 334/520/326 319/506/326
f 319/506/326 322/505/326 335/525/326
f 330/528/142 332/523/142 322/505/142
f 322/505/383 321/504/383 330/528/383
f 333/519/328 336/526/328 321/504/328
f 321/504/215 320/507/215 333/519/215
f 336/532/276 333/529/276 312/498/276
f 312/498/276 323/508/276 336/532/276
f 334/537/219 335/533/219 314/499/219
f 314/499/219 318/502/219 334/537/219
f 298/402/279 329/418/279 323/508/279
f 323/508/384 308/488/384 298/402/384
f 291/497/332 311/535/332 318/502/332
f 318/502/223 310/494/223 291/497/223
